<svg width="75" height="75" viewBox="0 0 75 75" fill="none" xmlns="http://www.w3.org/2000/svg">
<path d="M26.2048 40.062H61.6823C62.2147 40.062 62.6979 40.279 63.0475 40.6286C63.3971 40.9781 63.6141 41.4613 63.6141 41.9938V62.6634C63.6141 63.1959 63.3971 63.6791 63.0475 64.0287C62.6979 64.3783 62.2147 64.5953 61.6823 64.5953H26.2048C25.6776 64.5953 25.196 64.3784 24.8441 64.0286L24.8441 64.0287L24.8418 64.0264L24.8395 64.0241L24.8366 64.021C24.4886 63.6694 24.2729 63.1891 24.2729 62.6634V41.9938C24.2729 41.4656 24.4907 40.983 24.8418 40.6309L24.8395 40.6286C25.1891 40.2791 25.6723 40.062 26.2048 40.062L26.2048 40.062Z" fill="white"/>
<path d="M52.0863 40.9135C52.0863 41.5603 51.5338 42.0847 50.8523 42.0847C50.1708 42.0847 49.6182 41.5603 49.6182 40.9135V37.4974H47.442L49.5002 35.8801C49.8076 35.6454 50.0703 35.4107 50.3012 35.1773C50.7245 35.2372 51.1103 35.4136 51.4116 35.6674C51.8279 36.018 52.0863 36.5099 52.0863 37.0582V40.9135L52.0863 40.9135ZM45.2656 37.4974H44.7844L46.28 36.0302L45.4378 37.3003C45.3656 37.3569 45.3081 37.424 45.2656 37.4974V37.4974ZM42.8465 37.4974H42.4436L44.7427 35.155H44.7515L43.0412 37.2567C42.9552 37.3244 42.8901 37.4071 42.8465 37.4974L42.8465 37.4974ZM40.7425 37.4974H39.9812L42.2391 35.155H42.4666L41.003 36.9795C40.8336 37.1126 40.7449 37.3039 40.7425 37.4974L40.7425 37.4974ZM39.0181 37.4974H38.2693V40.9135C38.2693 41.5603 37.7168 42.0847 37.0353 42.0847C36.3538 42.0847 35.8013 41.5603 35.8013 40.9135V37.0582C35.8013 36.5099 36.0597 36.018 36.476 35.6675C36.8513 35.3513 37.3577 35.155 37.9045 35.155H40.3251C39.5918 35.9048 39.0436 36.4675 39.0436 36.4675C38.7377 36.7078 38.6951 37.138 38.9485 37.428C38.9702 37.453 38.9935 37.4761 39.0181 37.4974V37.4974Z" fill="white"/>
<path d="M30.4429 39.2453C30.4429 38.6043 30.9625 38.0847 31.6034 38.0847C32.2444 38.0847 32.764 38.6043 32.764 39.2453V40.7315C32.764 41.3724 32.2444 41.8921 31.6034 41.8921C30.9625 41.8921 30.4429 41.3724 30.4429 40.7315V39.2453Z" fill="white"/>
<path d="M55.123 39.2453C55.123 38.6043 55.6427 38.0847 56.2836 38.0847C56.9245 38.0847 57.4442 38.6043 57.4442 39.2453V40.7315C57.4442 41.3724 56.9246 41.8921 56.2836 41.8921C55.6427 41.8921 55.123 41.3724 55.123 40.7315V39.2453Z" fill="white"/>
<path d="M44.8952 38.7966C44.8237 38.71 44.7653 38.617 44.7198 38.5197L44.4106 38.8393C44.3923 38.8621 44.372 38.8838 44.3497 38.9042L44.3495 38.9045L44.3435 38.91L44.3431 38.9103L44.343 38.9103C44.3379 38.9149 44.3326 38.9194 44.3272 38.9239C44.0519 39.1514 43.7091 39.2461 43.3778 39.2148V39.2146C43.058 39.184 42.7505 39.0373 42.5251 38.7811C42.507 38.7621 42.4903 38.7419 42.475 38.7207C42.4338 38.6679 42.3973 38.6129 42.3656 38.556L42.3627 38.5591C42.3408 38.5849 42.3164 38.6092 42.2894 38.6315C42.0182 38.8556 41.6826 38.9508 41.357 38.9241L41.3393 38.9228C41.0079 38.8916 40.689 38.7346 40.461 38.4592C40.3793 38.3605 40.3148 38.2532 40.267 38.1409C40.0033 38.3333 39.6868 38.4122 39.3801 38.3833C39.0488 38.3521 38.73 38.1952 38.5022 37.9199L38.5022 37.9199L38.5013 37.9188C38.2738 37.6441 38.1793 37.3024 38.2103 36.9722C38.241 36.6472 38.3916 36.3343 38.6551 36.1074C38.9843 35.7514 41.5447 32.984 42.8782 31.5788C42.4566 31.5933 42.0468 31.6072 41.9176 31.6116C41.5125 31.6568 41.1242 31.547 40.8213 31.332C40.5107 31.1116 40.2899 30.7807 40.227 30.3894C40.224 30.374 40.2214 30.3584 40.2195 30.3426C40.1705 29.9389 40.3003 29.5542 40.5507 29.2575C40.777 28.9894 41.1051 28.7956 41.4873 28.7321C41.5078 28.7273 41.5288 28.7235 41.5501 28.7209L41.557 28.7201L41.5571 28.7215L41.5706 28.7201C41.5808 28.719 45.1288 28.3557 46.4037 28.216L46.4192 28.2141L46.6564 28.1874C47.8967 28.0487 48.7638 27.9517 49.8453 27.0561C49.8832 27.0246 50.9842 25.9655 52.5656 24.444C56.5796 20.5823 63.6617 13.7691 64.612 12.9559C64.7146 12.8606 64.8519 12.8021 65.0029 12.8015C65.3221 12.8003 65.582 13.0581 65.5832 13.3773L65.624 20.6434C65.6334 20.8171 65.5648 20.9931 65.4224 21.1149C65.2076 21.2983 62.2533 24.0232 59.3064 26.7414C56.3736 29.4464 53.448 32.145 53.2053 32.3524L53.2048 32.3518C52.7153 32.7918 52.3707 33.3175 52.0054 33.8749C51.4937 34.6559 50.9448 35.4932 49.8869 36.3504C49.8812 36.3555 49.8754 36.3605 49.8694 36.3655L46.724 38.9698C46.4483 39.1976 46.1055 39.292 45.7742 39.2607C45.443 39.2295 45.1243 39.0728 44.8966 38.7983L44.8951 38.7965L44.8952 38.7966Z" fill="white"/>
<path fill-rule="evenodd" clip-rule="evenodd" d="M32.6648 28.666C32.6545 28.6598 32.644 28.6539 32.6337 28.6475L28.8919 26.3614C28.8754 26.3513 28.8543 26.3568 28.8443 26.3732C28.8321 26.393 28.8648 26.427 28.8782 26.437L33.316 29.7669C34.067 30.2756 33.6523 31.1552 33.0047 31.2797C32.7876 31.3214 32.5609 31.2745 32.3774 31.1508L31.9321 30.8787L31.9331 30.877L27.6137 28.2212C27.5966 28.2107 27.5747 28.2157 27.5624 28.2363C27.5601 28.2583 27.5953 28.2956 27.6108 28.3076L31.4919 31.3326C31.5177 31.3527 31.5437 31.3726 31.5703 31.3917C31.739 31.5132 31.8446 31.6966 31.8834 31.8986C31.9222 32.101 31.8922 32.3114 31.7803 32.4868C31.7638 32.5128 31.7464 32.5384 31.7284 32.5634C31.6071 32.7322 31.424 32.8384 31.2217 32.8772C31.0068 32.9186 30.7825 32.8731 30.6003 32.7522C30.5914 32.7465 30.5825 32.7408 30.5738 32.7349L25.9376 29.5748C25.9214 29.5638 25.8997 29.5676 25.8885 29.5838C25.8765 29.6015 25.8893 29.6252 25.903 29.6378L28.7788 32.3041C28.79 32.3128 28.8028 32.3211 28.8143 32.3293C28.9877 32.4515 29.0994 32.638 29.1392 32.8447C29.1803 33.0589 29.1351 33.2826 29.0149 33.4644C29.0065 33.4779 28.9979 33.4912 28.9886 33.5043C28.8667 33.6754 28.6816 33.7844 28.4771 33.8238C28.2629 33.8651 28.0392 33.8201 27.8573 33.7002C27.8414 33.6906 27.8259 33.6812 27.8104 33.6707L22.0321 29.7579C20.9121 29.0113 20.1637 28.19 19.3322 27.1544C18.7858 26.4737 18.2715 25.8418 17.559 25.3193C17.5527 25.315 17.5462 25.311 17.5397 25.3068C17.0343 24.9753 16.5344 24.6153 16.0387 24.2687C15.176 23.6657 14.3149 23.0605 13.4536 22.4556C12.5366 21.8115 11.6198 21.1671 10.7015 20.5249L9.375 19.5973L9.49308 10.4048L10.3694 11.1309C11.866 12.3708 13.3287 13.6769 14.7827 14.9668C15.9552 16.0071 17.1235 17.0521 18.2916 18.0974C18.7223 18.4829 19.1528 18.8689 19.5849 19.2528C19.7663 19.4138 19.9705 19.6102 20.1624 19.7568C21.7068 20.8012 22.75 20.8423 24.5361 20.8706L24.8189 20.8751C25.7291 20.8751 26.6397 20.8823 27.5498 20.889C28.2519 20.8941 28.9539 20.8998 29.656 20.9065C30.0158 20.9099 30.383 20.9071 30.7423 20.9197L30.7484 20.9199C31.0351 20.93 31.3114 21.0405 31.5175 21.2417C31.7129 21.4325 31.8279 21.6947 31.8194 21.9691C31.8107 22.2507 31.6754 22.5076 31.4639 22.6908C31.2418 22.883 30.9523 22.9809 30.6562 22.9752L30.5498 22.9812C30.095 23.011 28.4036 23.1217 28.1359 23.1277C28.0722 23.1292 27.9779 23.1407 27.9193 23.1667C27.8874 23.1809 27.8598 23.1978 27.8435 23.2298C27.8211 23.2736 27.8273 23.2938 27.8513 23.3383C27.8861 23.403 27.9865 23.4785 28.0451 23.5181C29.2842 24.3574 33.4359 27.1688 33.5949 27.2761L33.6035 27.282C33.9824 27.5417 34.1587 27.9246 33.8286 28.4286C33.5289 28.8861 33.2637 29.0643 32.6648 28.666V28.666Z" fill="white"/>
</svg>
