<svg width="75" height="75" viewBox="0 0 75 75" fill="none" xmlns="http://www.w3.org/2000/svg">
<path fill-rule="evenodd" clip-rule="evenodd" d="M36.8274 35.2612C36.6832 35.2017 36.5342 35.1502 36.3811 35.1073L36.2592 34.2002C36.2436 33.9323 36.0214 33.7197 35.7495 33.7197H34.7934V33.7206C34.5367 33.7203 34.3156 33.9135 34.2869 34.1744L34.1816 35.1119C34.0323 35.1543 33.8871 35.2049 33.7466 35.2631C33.6046 35.322 33.4661 35.3891 33.3317 35.4642L32.618 34.8944C32.4177 34.7131 32.1079 34.719 31.9148 34.9122L31.2385 35.5883L31.2394 35.5891C31.0613 35.7667 31.0379 36.0531 31.1947 36.2584L31.7728 37.0161C31.6951 37.154 31.6254 37.2964 31.5645 37.4427C31.5056 37.5844 31.4544 37.731 31.4115 37.8819L30.5038 37.9837C30.234 37.9974 30.0195 38.2204 30.0195 38.4936V39.4498H30.021C30.0207 39.701 30.2064 39.92 30.4623 39.9543L31.4071 40.0813C31.45 40.2344 31.5014 40.3835 31.561 40.5276C31.6208 40.6725 31.6887 40.813 31.7642 40.9487L31.1745 41.6882C31.0156 41.8876 31.0279 42.1789 31.2121 42.364L31.8766 43.0288C32.0531 43.2183 32.3481 43.2465 32.5582 43.0861L33.316 42.5079C33.4539 42.5857 33.5964 42.6553 33.7427 42.7162C33.8843 42.7751 34.0308 42.8263 34.1816 42.8691L34.2836 43.7771C34.2973 44.0468 34.5203 44.2613 34.7934 44.2613H35.7495V44.2599C36.0008 44.2601 36.2197 44.0744 36.2541 43.8185L36.3811 42.8737C36.5267 42.833 36.6685 42.7845 36.8059 42.7287L36.8337 42.718C36.9816 42.6568 37.1254 42.5865 37.2647 42.5079L37.9958 43.0658C38.1964 43.2412 38.5014 43.2333 38.6926 43.0422L39.3685 42.3661L39.3679 42.3655C39.549 42.1848 39.5693 41.893 39.4064 41.688L38.8164 40.9488C38.8919 40.8131 38.9599 40.6725 39.0196 40.5276C39.0792 40.3834 39.1307 40.2344 39.1735 40.0813L40.0806 39.9594C40.3485 39.9438 40.5611 39.7216 40.5611 39.4498V38.4936H40.5602C40.5605 38.2369 40.3674 38.0158 40.1064 37.987L39.169 37.8819C39.1262 37.731 39.075 37.5844 39.016 37.4426C38.9551 37.2963 38.8855 37.1539 38.8077 37.0161L39.3656 36.285C39.541 36.0845 39.5331 35.7794 39.342 35.5883L38.6659 34.9122L38.6652 34.9129C38.4846 34.7318 38.1928 34.7114 37.9878 34.8743L37.2485 35.4644C37.1129 35.389 36.9722 35.3211 36.8274 35.2612V35.2612ZM35.2903 37.2373C35.7743 37.2373 36.2127 37.4336 36.5299 37.7508C36.8472 38.0681 37.0435 38.5065 37.0435 38.9905C37.0435 39.4745 36.8472 39.9129 36.5299 40.2301C36.2127 40.5474 35.7743 40.7437 35.2903 40.7437C34.8062 40.7437 34.3679 40.5474 34.0507 40.2301C33.7334 39.9129 33.5371 39.4745 33.5371 38.9905C33.5371 38.5065 33.7334 38.0681 34.0507 37.7508C34.3679 37.4336 34.8063 37.2373 35.2903 37.2373Z" fill="white"/>
<path fill-rule="evenodd" clip-rule="evenodd" d="M45.6455 43.0028C45.5383 42.9207 45.4254 42.8443 45.3071 42.7742L45.4083 41.989C45.4552 41.7617 45.3171 41.5344 45.09 41.4735L44.2912 41.2594L44.291 41.2602C44.0766 41.2025 43.8486 41.3143 43.7662 41.526L43.4683 42.2856C43.334 42.2877 43.2014 42.2974 43.071 42.3146C42.9393 42.332 42.8085 42.3571 42.6794 42.3897L42.2106 41.7539C42.0838 41.5576 41.8237 41.4931 41.619 41.6113L40.9027 42.0248L40.9032 42.0256C40.7147 42.1342 40.631 42.3682 40.716 42.5749L41.0295 43.3373C40.9336 43.4351 40.8435 43.5386 40.7599 43.6472C40.6789 43.7524 40.6033 43.8634 40.5337 43.9799L39.7525 43.8617C39.5241 43.8128 39.2949 43.9511 39.2338 44.1793L39.0197 44.9782L39.0209 44.9785C38.9645 45.1884 39.0706 45.4129 39.2767 45.4989L40.0377 45.8165C40.0392 45.954 40.0489 46.0901 40.0663 46.2239C40.0839 46.3583 40.1092 46.4909 40.1419 46.6212L39.4836 47.1071C39.3062 47.2381 39.2512 47.4842 39.3636 47.6801L39.7701 48.3843C39.8751 48.5821 40.1153 48.6717 40.3267 48.5847L41.0893 48.2713C41.1871 48.3672 41.2906 48.4573 41.3992 48.5409C41.5043 48.6218 41.6153 48.6974 41.7317 48.7669L41.6136 49.5484C41.5647 49.7768 41.703 50.006 41.9312 50.0671L42.73 50.2811L42.7303 50.2799C42.9402 50.3364 43.1647 50.2302 43.2507 50.0241L43.5684 49.2632C43.6991 49.2617 43.8284 49.253 43.9558 49.2371L43.9814 49.2344C44.1186 49.2164 44.2545 49.1898 44.3885 49.1554L44.8745 49.7851C45.0028 49.9766 45.2594 50.0383 45.4619 49.9214L46.178 49.5079L46.1776 49.5072C46.3694 49.3968 46.4517 49.1575 46.3615 48.9498L46.034 48.2C46.1275 48.1035 46.2157 48.0013 46.2981 47.8937C46.3802 47.7865 46.4566 47.6736 46.5266 47.5553L47.3118 47.6564C47.5392 47.7034 47.7665 47.5653 47.8273 47.3382L48.0414 46.5393L48.0406 46.5391C48.0983 46.3247 47.9865 46.0967 47.7749 46.0143L47.0153 45.7166C47.0132 45.5809 47.0032 45.4469 46.9857 45.3153C46.9676 45.1795 46.9413 45.0449 46.9072 44.9123L47.537 44.4263C47.7284 44.2981 47.7902 44.0414 47.6732 43.8389L47.2597 43.1227L47.259 43.1231C47.1486 42.9314 46.9093 42.8491 46.7016 42.9393L45.9518 43.2668C45.8554 43.1734 45.7531 43.0852 45.6455 43.0028H45.6455ZM43.9188 44.3097C44.3232 44.4181 44.6456 44.6802 44.8396 45.0163C45.0336 45.3524 45.0995 45.7626 44.9912 46.167C44.8828 46.5714 44.6206 46.8937 44.2845 47.0877C43.9484 47.2818 43.5382 47.3477 43.1338 47.2393C42.7294 47.131 42.4071 46.8688 42.2131 46.5327C42.019 46.1966 41.9531 45.7864 42.0615 45.382C42.1699 44.9776 42.432 44.6553 42.7681 44.4612C43.1042 44.2672 43.5144 44.2013 43.9188 44.3097Z" fill="white"/>
<path fill-rule="evenodd" clip-rule="evenodd" d="M34.4798 46.3898C34.3104 46.3198 34.1353 46.2593 33.9554 46.2089L33.8121 45.1432C33.7938 44.8283 33.5327 44.5786 33.2133 44.5786H32.09V44.5797C31.7884 44.5793 31.5286 44.8062 31.4948 45.1129L31.3711 46.2143C31.1957 46.2641 31.0251 46.3235 30.86 46.392C30.6932 46.4611 30.5305 46.5401 30.3726 46.6282L29.534 45.9588C29.2986 45.7457 28.9347 45.7527 28.7077 45.9797L27.9132 46.774L27.9142 46.775C27.705 46.9836 27.6775 47.3201 27.8617 47.5614L28.541 48.4516C28.4496 48.6136 28.3678 48.7809 28.2962 48.9528C28.227 49.1193 28.1668 49.2916 28.1165 49.4688L27.0499 49.5885C26.733 49.6046 26.481 49.8666 26.481 50.1876V51.311H26.4826C26.4823 51.6062 26.7006 51.8634 27.0012 51.9038L28.1113 52.053C28.1616 52.2329 28.2221 52.408 28.2921 52.5774C28.3623 52.7476 28.4422 52.9127 28.5308 53.0721L27.838 53.9411C27.6513 54.1753 27.6657 54.5176 27.8821 54.7351L28.6629 55.5161C28.8702 55.7388 29.2168 55.7719 29.4637 55.5834L30.3541 54.9041C30.5161 54.9955 30.6835 55.0773 30.8554 55.1489C31.0218 55.2181 31.194 55.2781 31.3711 55.3285L31.4909 56.3953C31.507 56.7122 31.7691 56.9642 32.09 56.9642H33.2133V56.9626C33.5085 56.9629 33.7658 56.7446 33.8062 56.444L33.9554 55.3339C34.1264 55.2861 34.293 55.2291 34.4545 55.1635L34.4872 55.151C34.6609 55.079 34.8299 54.9964 34.9935 54.9042L35.8526 55.5595C36.0882 55.7656 36.4466 55.7564 36.6712 55.5319L37.4654 54.7375L37.4646 54.7367C37.6774 54.5245 37.7013 54.1816 37.5099 53.9408L36.8167 53.0722C36.9054 52.9128 36.9852 52.7476 37.0555 52.5774C37.1255 52.4079 37.186 52.2329 37.2363 52.053L38.302 51.9098C38.6168 51.8914 38.8665 51.6304 38.8665 51.311V50.1876H38.8655C38.8658 49.886 38.6389 49.6261 38.3323 49.5924L37.231 49.4688C37.1806 49.2915 37.1204 49.1193 37.0512 48.9528C36.9797 48.7809 36.8979 48.6135 36.8065 48.4516L37.4619 47.5926C37.668 47.357 37.6588 46.9986 37.4342 46.774L36.6399 45.9797L36.6391 45.9805C36.4268 45.7677 36.084 45.7437 35.8431 45.9352L34.9745 46.6285C34.8151 46.5399 34.6499 46.46 34.4798 46.3898L34.4798 46.3898ZM32.6737 48.7115C33.2424 48.7115 33.7575 48.9422 34.1302 49.3149C34.503 49.6877 34.7336 50.2027 34.7336 50.7714C34.7336 51.3401 34.503 51.8552 34.1302 52.2279C33.7575 52.6006 33.2424 52.8313 32.6737 52.8313C32.1051 52.8313 31.59 52.6006 31.2172 52.2279C30.8445 51.8552 30.6138 51.3401 30.6138 50.7714C30.6138 50.2028 30.8445 49.6877 31.2172 49.3149C31.59 48.9422 32.1051 48.7115 32.6737 48.7115Z" fill="white"/>
<path d="M58.7843 19.3299C59.1327 19.3299 59.4153 19.6125 59.4153 19.961C59.4153 20.3095 59.1327 20.592 58.7843 20.592C58.0675 20.592 57.3806 20.4691 56.7566 20.2621C56.0712 20.0347 55.4649 19.7037 54.9803 19.3212C54.5883 19.0118 54.2713 18.6653 54.0505 18.3079C53.8082 17.9157 53.6758 17.5065 53.6758 17.1076C53.6758 16.7591 53.9583 16.4766 54.3068 16.4766C55.024 16.4766 55.6365 16.6144 55.9091 17.0556C56.0542 17.2905 57.0772 17.1478 57.3533 17.3657C57.7283 17.6617 57.6936 17.8374 58.2356 18.0172C58.7291 18.181 58.1968 19.3299 58.7843 19.3299L58.7843 19.3299Z" fill="white"/>
<path d="M54.63 18.539C54.8628 18.7977 54.8418 19.1961 54.5832 19.4289C54.192 19.7803 53.7186 20.0813 53.1898 20.2888C52.7026 20.4799 52.1695 20.5921 51.6116 20.5921C51.2631 20.5921 51.857 20.3095 51.857 19.961C51.857 19.6125 51.8108 18.6233 52.1593 18.6233C52.5563 18.6233 52.5729 17.5908 52.9175 17.4556C53.2992 17.3059 54.5713 18.4738 54.63 18.539L54.63 18.539Z" fill="white"/>
<path d="M55.6017 16.1985C56.7574 16.1985 57.8039 16.667 58.5614 17.4245C59.3188 18.1819 59.7874 19.2284 59.7874 20.3841C59.7874 21.5569 59.2903 22.8928 58.4975 23.8884C57.7529 24.8235 56.7395 25.479 55.6017 25.479C54.4639 25.479 53.4504 24.8235 52.7058 23.8884C51.913 22.8928 51.416 21.5569 51.416 20.3841C51.416 19.2284 51.8846 18.1819 52.642 17.4245C53.3995 16.667 54.4459 16.1985 55.6017 16.1985H55.6017ZM57.669 18.3168C57.14 17.7878 56.409 17.4606 55.6017 17.4606C54.7943 17.4606 54.0634 17.7878 53.5344 18.3168C53.0054 18.8458 52.6781 19.5768 52.6781 20.3841C52.6781 21.2848 53.0688 22.3221 53.6919 23.1045C54.2126 23.7585 54.8866 24.2169 55.6017 24.2169C56.3169 24.2169 56.9908 23.7585 57.5116 23.1045C58.1346 22.3221 58.5253 21.2848 58.5253 20.3841C58.5253 19.5768 58.198 18.8458 57.6691 18.3168H57.669Z" fill="white"/>
<path fill-rule="evenodd" clip-rule="evenodd" d="M56.5974 26.3018L56.5996 26.3105L56.3797 26.3689C56.1257 26.4364 55.8647 26.471 55.6019 26.471C55.3381 26.471 55.0764 26.4357 54.8215 26.3676C54.556 26.2966 54.2979 26.1989 54.0583 26.0634C53.9622 26.0091 53.8539 25.9838 53.7441 26.0017C53.3681 26.063 52.9953 26.157 52.6384 26.291C52.3111 26.4139 51.9936 26.5732 51.7068 26.7737C50.5891 27.5547 49.3966 27.9199 48.0425 27.6416C46.9707 27.4213 45.9877 26.8478 45.0506 26.3057C44.3738 25.9142 43.6891 25.5379 42.972 25.2244C42.9595 25.2189 42.9468 25.213 42.934 25.2083C42.2256 24.9453 41.4388 24.9545 40.811 25.4108C40.5635 25.5907 40.365 25.8289 40.2329 26.1049C40.1005 26.3816 40.0398 26.6867 40.0599 26.9933C40.1105 27.7662 40.6453 28.3614 41.2743 28.7574C42.7581 29.6914 44.2817 30.6712 45.9242 31.3045C47.2204 31.8042 48.6573 32.132 50.0486 31.9158L50.3075 31.8756L50.3148 32.1375C50.3891 34.7895 50.4327 37.7443 50.4608 40.3975H60.2843C60.3125 37.7194 60.355 34.7399 60.425 32.0632L60.4413 31.4365L60.8355 31.9241C61.0346 32.1706 61.2097 32.4362 61.3581 32.7162C61.7428 33.4421 61.9426 34.2542 61.9426 35.0756V39.5685C61.9426 40.3679 62.2742 41.1094 63.023 41.4619C63.2607 41.5737 63.5208 41.6332 63.7838 41.6332C64.0467 41.6332 64.3068 41.5737 64.5446 41.4619C65.2934 41.1094 65.625 40.368 65.625 39.5685V35.0756C65.625 32.7547 64.7562 30.4411 63.1987 28.7162C61.7007 27.0572 59.6628 26.1612 57.4431 26C57.3463 25.993 57.2478 26.0052 57.1616 26.052C56.9806 26.1501 56.7921 26.2349 56.5974 26.3018L56.5974 26.3018ZM56.2947 28.7666V36.1625L55.6019 36.8553L54.9091 36.1625V28.84L54.5962 29.0056C54.371 29.1242 54.0923 29.0377 53.9737 28.8126C53.8552 28.5874 53.9416 28.3087 54.1668 28.1901L55.4525 27.5097L55.4551 27.5084L55.4565 27.5076C55.5863 27.4395 55.7464 27.4342 55.8859 27.5076L57.037 28.1168C57.2622 28.2353 57.3486 28.5141 57.2301 28.7392C57.1115 28.9644 56.8328 29.0508 56.6076 28.9322L56.2947 28.7666L56.2947 28.7666ZM50.4741 41.3967C50.4767 41.6876 50.4791 42.0634 50.4813 42.3543C50.5138 46.5423 50.5144 50.7303 50.5138 54.9183L50.5136 56.6686C50.538 57.1971 50.7292 57.7147 51.0762 58.1176C51.4412 58.5414 51.9476 58.8017 52.5117 58.8017C53.0759 58.8017 53.5823 58.5414 53.9473 58.1176C54.3195 57.6854 54.5126 57.1209 54.5126 56.5528V44.6252L54.6187 44.5571C54.8447 44.4119 55.1067 44.3255 55.3764 44.3255H55.3791C55.6446 44.3255 55.9008 44.4008 56.1214 44.5491L56.2235 44.6177V56.5527C56.2235 57.1209 56.4165 57.6853 56.7888 58.1176C57.1538 58.5414 57.6601 58.8017 58.2243 58.8017C58.7885 58.8017 59.2948 58.5414 59.6598 58.1176C60.0321 57.6853 60.2251 57.1209 60.2251 56.5527C60.2251 52.3019 60.2247 48.0507 60.2531 43.7998C60.2582 43.0271 60.264 42.1694 60.2709 41.3967H50.4741L50.4741 41.3967Z" fill="white"/>
<path d="M16.2155 19.3299C15.867 19.3299 15.5845 19.6125 15.5845 19.961C15.5845 20.3095 15.867 20.592 16.2155 20.592C16.9323 20.592 17.6192 20.4691 18.2432 20.2621C18.9286 20.0347 19.5349 19.7037 20.0195 19.3212C20.4115 19.0118 20.7285 18.6653 20.9493 18.3079C21.1916 17.9157 21.324 17.5065 21.324 17.1076C21.324 16.7591 21.0415 16.4766 20.693 16.4766C19.9758 16.4766 19.3633 16.6144 19.0907 17.0556C18.9456 17.2905 17.9226 17.1478 17.6465 17.3657C17.2715 17.6617 17.3062 17.8374 16.7642 18.0172C16.2707 18.181 16.803 19.3299 16.2155 19.3299L16.2155 19.3299Z" fill="white"/>
<path d="M20.3698 18.539C20.137 18.7977 20.1579 19.1961 20.4166 19.4289C20.8077 19.7803 21.2811 20.0813 21.81 20.2888C22.2972 20.4799 22.8303 20.5921 23.3882 20.5921C23.7367 20.5921 23.1428 20.3095 23.1428 19.961C23.1428 19.6125 23.189 18.6233 22.8404 18.6233C22.4435 18.6233 22.4269 17.5908 22.0822 17.4556C21.7006 17.3059 20.4285 18.4738 20.3698 18.539L20.3698 18.539Z" fill="white"/>
<path d="M19.3981 16.1985C18.2423 16.1985 17.1958 16.667 16.4384 17.4245C15.681 18.1819 15.2124 19.2284 15.2124 20.3841C15.2124 21.5569 15.7094 22.8928 16.5022 23.8884C17.2468 24.8235 18.2603 25.479 19.3981 25.479C20.5358 25.479 21.5493 24.8235 22.2939 23.8884C23.0867 22.8928 23.5838 21.5569 23.5838 20.3841C23.5838 19.2284 23.1152 18.1819 22.3577 17.4245C21.6003 16.667 20.5539 16.1985 19.3981 16.1985H19.3981ZM17.3307 18.3168C17.8598 17.7878 18.5907 17.4606 19.3981 17.4606C20.2054 17.4606 20.9364 17.7878 21.4654 18.3168C21.9944 18.8458 22.3216 19.5768 22.3216 20.3841C22.3216 21.2848 21.931 22.3221 21.3079 23.1045C20.7871 23.7585 20.1132 24.2169 19.3981 24.2169C18.6829 24.2169 18.009 23.7585 17.4882 23.1045C16.8651 22.3221 16.4745 21.2848 16.4745 20.3841C16.4745 19.5768 16.8017 18.8458 17.3307 18.3168H17.3307Z" fill="white"/>
<path fill-rule="evenodd" clip-rule="evenodd" d="M18.4025 26.3018L18.4003 26.3105L18.6202 26.3689C18.8743 26.4364 19.1352 26.471 19.3981 26.471C19.6619 26.471 19.9236 26.4357 20.1784 26.3676C20.4439 26.2966 20.7021 26.1989 20.9417 26.0634C21.0377 26.0091 21.146 25.9838 21.2558 26.0017C21.6319 26.063 22.0046 26.157 22.3616 26.291C22.6888 26.4139 23.0063 26.5732 23.2931 26.7737C24.4109 27.5547 25.6033 27.9199 26.9575 27.6416C28.0292 27.4213 29.0122 26.8478 29.9494 26.3057C30.6262 25.9142 31.3109 25.5379 32.0279 25.2244C32.0405 25.2189 32.0532 25.213 32.066 25.2083C32.7744 24.9453 33.5611 24.9545 34.1889 25.4108C34.4364 25.5907 34.635 25.8289 34.767 26.1049C34.8995 26.3816 34.9601 26.6867 34.94 26.9933C34.8894 27.7662 34.3546 28.3614 33.7256 28.7574C32.2419 29.6914 30.7183 30.6712 29.0757 31.3045C27.7796 31.8042 26.3427 32.132 24.9514 31.9158L24.6925 31.8756L24.6851 32.1375C24.6108 34.7895 24.5672 37.7443 24.5392 40.3975H14.7157C14.6875 37.7194 14.6449 34.7399 14.575 32.0632L14.5586 31.4365L14.1645 31.9241C13.9653 32.1706 13.7902 32.4362 13.6418 32.7162C13.2572 33.4421 13.0574 34.2542 13.0574 35.0756V39.5685C13.0574 40.3679 12.7257 41.1094 11.977 41.4619C11.7392 41.5737 11.4791 41.6332 11.2162 41.6332C10.9533 41.6332 10.6931 41.5737 10.4554 41.4619C9.70658 41.1094 9.375 40.368 9.375 39.5685V35.0756C9.375 32.7547 10.2437 30.4411 11.8013 28.7162C13.2992 27.0572 15.3371 26.1612 17.5569 26C17.6536 25.993 17.7522 26.0052 17.8384 26.052C18.0193 26.1501 18.2078 26.2349 18.4025 26.3018L18.4025 26.3018ZM18.7053 28.7666V36.1625L19.3981 36.8553L20.0909 36.1625V28.84L20.4038 29.0056C20.629 29.1242 20.9077 29.0377 21.0262 28.8126C21.1448 28.5874 21.0584 28.3087 20.8332 28.1901L19.5474 27.5097L19.5448 27.5084L19.5435 27.5076C19.4136 27.4395 19.2536 27.4342 19.114 27.5076L17.9629 28.1168C17.7378 28.2353 17.6513 28.5141 17.7699 28.7392C17.8884 28.9644 18.1671 29.0508 18.3923 28.9322L18.7053 28.7666L18.7053 28.7666ZM24.5258 41.3967C24.5232 41.6876 24.5209 42.0634 24.5186 42.3543C24.4862 46.5423 24.4855 50.7303 24.4861 54.9183L24.4864 56.6686C24.4619 57.1971 24.2707 57.7147 23.9237 58.1176C23.5588 58.5414 23.0524 58.8017 22.4882 58.8017C21.9241 58.8017 21.4177 58.5414 21.0527 58.1176C20.6804 57.6854 20.4874 57.1209 20.4874 56.5528V44.6252L20.3812 44.5571C20.1553 44.4119 19.8932 44.3255 19.6236 44.3255H19.6209C19.3554 44.3255 19.0992 44.4008 18.8786 44.5491L18.7765 44.6177V56.5527C18.7765 57.1209 18.5835 57.6853 18.2112 58.1176C17.8462 58.5414 17.3398 58.8017 16.7756 58.8017C16.2115 58.8017 15.7051 58.5414 15.3401 58.1176C14.9678 57.6853 14.7748 57.1209 14.7748 56.5527C14.7748 52.3019 14.7752 48.0507 14.7469 43.7998C14.7417 43.0271 14.7359 42.1694 14.7291 41.3967H24.5258L24.5258 41.3967Z" fill="white"/>
</svg>
