<svg width="75" height="75" viewBox="0 0 75 75" fill="none" xmlns="http://www.w3.org/2000/svg">
<path d="M40.7057 31.1797C40.9402 30.5797 41.6168 30.2833 42.2168 30.5178C42.8168 30.7523 43.1132 31.4288 42.8787 32.0288L41.2108 37.4227H38.7026L40.7057 31.1797V31.1797Z" fill="white"/>
<path d="M53.6257 37.4227L51.9578 32.0288C51.7233 31.4288 52.0197 30.7523 52.6197 30.5178C53.2197 30.2833 53.8962 30.5797 54.1307 31.1797L56.1338 37.4227H53.6257Z" fill="white"/>
<path d="M26.9763 35.4034C27.4903 35.4034 27.9071 35.8202 27.9071 36.3342C27.9071 36.8482 27.4903 37.265 26.9763 37.265C25.9191 37.265 24.906 37.0837 23.9856 36.7784C22.9746 36.443 22.0804 35.9548 21.3656 35.3907C20.7873 34.9342 20.3198 34.4232 19.9941 33.896C19.6367 33.3175 19.4414 32.7139 19.4414 32.1256C19.4414 31.6116 19.8582 31.1948 20.3722 31.1948C21.4301 31.1948 22.3334 31.3981 22.7355 32.049C22.9495 32.3954 24.4584 32.1848 24.8657 32.5063C25.4188 32.9428 25.3675 33.2021 26.167 33.4673C26.895 33.7087 26.1099 35.4034 26.9763 35.4034L26.9763 35.4034Z" fill="white"/>
<path d="M20.8491 34.2369C21.1925 34.6185 21.1616 35.2061 20.7801 35.5494C20.2031 36.0677 19.5049 36.5117 18.7248 36.8177C18.0062 37.0996 17.22 37.265 16.397 37.265C15.883 37.265 16.759 36.8483 16.759 36.3343C16.759 35.8202 16.6909 34.3612 17.205 34.3612C17.7905 34.3612 17.815 32.8383 18.3233 32.6389C18.8862 32.4181 20.7625 34.1407 20.8491 34.2369H20.8491Z" fill="white"/>
<path d="M22.2821 30.7847C23.9868 30.7847 25.5303 31.4757 26.6475 32.593C27.7648 33.7102 28.4559 35.2536 28.4559 36.9584C28.4559 38.6881 27.7228 40.6586 26.5534 42.1271C25.4552 43.5063 23.9603 44.4731 22.2821 44.4731C20.604 44.4731 19.1091 43.5063 18.0108 42.1271C16.8415 40.6586 16.1084 38.6881 16.1084 36.9584C16.1084 35.2536 16.7995 33.7102 17.9167 32.593C19.034 31.4757 20.5774 30.7847 22.2821 30.7847H22.2821ZM25.3314 33.9092C24.5511 33.1289 23.4729 32.6462 22.2821 32.6462C21.0913 32.6462 20.0132 33.1289 19.2329 33.9092C18.4526 34.6895 17.9699 35.7676 17.9699 36.9584C17.9699 38.2868 18.5462 39.8167 19.4652 40.9709C20.2332 41.9354 21.2273 42.6116 22.2821 42.6116C23.3369 42.6116 24.331 41.9354 25.0991 40.9709C26.0181 39.8167 26.5943 38.2868 26.5943 36.9584C26.5943 35.7676 26.1116 34.6894 25.3314 33.9092Z" fill="white"/>
<path fill-rule="evenodd" clip-rule="evenodd" d="M24.6271 45.054L24.5972 45.1074C24.5725 45.1514 24.5535 45.1985 24.5401 45.2472C24.0905 46.8922 24.6149 46.7927 22.3295 46.7927C20.0504 46.7927 20.4685 46.9028 20.0246 45.257C19.9667 45.0425 19.8041 44.8728 19.5883 44.8138C18.6044 44.5443 17.1093 45.2995 16.2846 45.7828C15.9282 45.9917 15.5801 46.2153 15.2391 46.4482C14.6135 46.8754 14.0041 47.3377 13.4246 47.8256C13.0274 48.1599 12.5833 48.546 12.2452 48.9407C11.4964 49.8146 10.888 50.7943 10.4748 51.8702C10.0955 52.8574 9.89414 53.8869 9.87256 54.9416L9.8729 55.1308C9.87295 55.1689 9.87628 55.207 9.88337 55.2445L10.9823 61.04C11.0712 61.5085 11.1948 62.0557 11.5263 62.4179C11.8785 62.8028 12.3593 63.0312 12.8839 63.0312C13.4085 63.0312 13.8893 62.8027 14.2415 62.4179C14.5701 62.0589 14.7578 61.5932 14.7793 61.1093L14.7792 61.0158C14.7791 60.9777 14.7758 60.9396 14.7687 60.9022L13.6657 55.0862L13.6662 55.0548C13.6775 54.2223 13.8772 53.4223 14.3244 52.7148C14.4529 52.5114 14.5992 52.3197 14.7599 52.1406L15.2777 51.5636L15.3009 52.3386C15.3464 53.8662 15.6505 55.3793 15.9466 56.8742C16.4804 59.5692 16.9334 62.0884 16.3945 64.8367C16.3287 65.172 16.5487 65.4978 16.8839 65.5632C17.0391 65.5893 17.2849 65.5853 17.4465 65.5896C17.8612 65.6007 18.2764 65.606 18.6912 65.6105C19.8797 65.6232 21.0688 65.6256 22.2574 65.625C23.4524 65.6243 24.6476 65.6202 25.8425 65.6079C26.2575 65.6036 26.6727 65.5987 27.0875 65.5893C27.2547 65.5856 27.4832 65.5905 27.6466 65.5678C27.9847 65.5197 28.2207 65.2065 28.1722 64.8682C27.7507 61.9326 28.1761 59.1968 28.685 56.3137C28.9181 54.9933 29.1674 53.641 29.2317 52.3004L29.2674 51.5568L29.7704 52.1057C29.9436 52.2947 30.1005 52.4981 30.2375 52.7149C30.7004 53.4471 30.9706 54.2465 30.895 55.1219L30.4068 60.7733C30.4046 60.7975 30.4026 60.8221 30.4026 60.8463C30.4026 61.3636 30.5927 61.8666 30.9424 62.2489C31.2947 62.6337 31.7755 62.8622 32.3001 62.8622C32.8247 62.8622 33.3055 62.6337 33.6577 62.2489C34.0015 61.8732 34.1553 61.3609 34.1983 60.8626L34.6872 55.2043C34.6893 55.1802 34.6913 55.1556 34.6913 55.1314C34.6913 54.0103 34.4892 52.9166 34.0872 51.8701C33.6739 50.7943 33.0655 49.8146 32.3168 48.9407C32.1979 48.802 32.0434 48.6658 31.9064 48.5452C31.6748 48.3415 31.4347 48.1458 31.193 47.9544C30.5638 47.4564 29.9108 46.9803 29.2477 46.5284C28.6907 46.1488 28.1185 45.7802 27.5312 45.449C27.0965 45.2038 26.6127 44.9495 26.139 44.7901C25.7072 44.6446 25.1631 44.5526 24.7853 44.8761C24.7241 44.9285 24.6712 44.9876 24.6271 45.054H24.6271Z" fill="white"/>
<path d="M25.5761 45.7456C25.9195 46.1251 25.8902 46.7112 25.5107 47.0545C25.2654 47.2765 24.9337 47.3426 24.6371 47.2592H19.9266C19.7624 47.3054 19.5876 47.3057 19.4225 47.2592H19.4222V47.2591C19.2891 47.2215 19.1624 47.1536 19.053 47.0545C18.6735 46.7112 18.6442 46.1251 18.9876 45.7456C18.9891 45.7439 19.5519 45.1387 19.7632 43.7441C19.8394 43.2361 20.3132 42.8861 20.8212 42.9623H23.7425C24.2505 42.8861 24.7243 43.2361 24.8006 43.7441C25.0118 45.1387 25.5746 45.7439 25.5761 45.7456H25.5761Z" fill="white"/>
<path fill-rule="evenodd" clip-rule="evenodd" d="M65.1276 31.3264V10.5437C65.1276 9.89828 64.6044 9.375 63.9589 9.375H30.8772C30.2318 9.375 29.7085 9.89828 29.7085 10.5437V31.3264C29.7085 31.9718 30.2318 32.4951 30.8772 32.4951H40.1864H42.6945H52.1417H54.6498H63.9589C64.6044 32.4951 65.1276 31.9718 65.1276 31.3264ZM33.9786 15.6311H41.5568V17.9685H33.9786V15.6311ZM33.9786 19.7001H44.0581V22.0375H33.9786V19.7001ZM33.9786 23.9016H46.3842V26.239H33.9786V23.9016ZM47.9071 18.6158C47.9911 18.6158 48.0733 18.6238 48.153 18.6391L49.6098 16.9378C49.819 16.6933 50.1869 16.6646 50.4315 16.8739C50.4923 16.9259 50.5398 16.9878 50.5735 17.0552L55.0364 25.0884L57.6418 15.5353C57.6105 15.5094 57.5804 15.4821 57.5518 15.4534C57.317 15.2186 57.1717 14.8943 57.1717 14.5362C57.1717 14.1801 57.3174 13.8561 57.5529 13.6201L57.5518 13.619C57.7865 13.3842 58.1108 13.2389 58.469 13.2389C58.8256 13.2389 59.1491 13.3842 59.3839 13.6189L59.3862 13.6212C59.6209 13.856 59.7662 14.1796 59.7662 14.5362C59.7662 14.8943 59.6209 15.2186 59.3862 15.4534C59.3719 15.4677 59.357 15.4811 59.3417 15.4936C59.1834 15.6378 58.9903 15.7436 58.777 15.7961L55.947 26.1729C56.0725 26.2357 56.1865 26.3184 56.2848 26.4166C56.5195 26.6513 56.6648 26.9757 56.6648 27.3339C56.6648 27.692 56.5195 28.0163 56.2848 28.251C56.0501 28.4858 55.7257 28.6311 55.3676 28.6311C55.0094 28.6311 54.6851 28.4858 54.4503 28.251C54.2156 28.0163 54.0703 27.692 54.0703 27.3339C54.0703 26.9785 54.2133 26.6563 54.4449 26.4221L49.9504 18.332L49.0769 19.352C49.1585 19.5218 49.2043 19.7121 49.2043 19.913C49.2043 20.2712 49.059 20.5955 48.8242 20.8302C48.5895 21.065 48.2652 21.2103 47.9071 21.2103C47.551 21.2103 47.227 21.0646 46.991 20.8291L46.9898 20.8302C46.7551 20.5955 46.6099 20.2712 46.6099 19.913C46.6099 19.5549 46.7551 19.2305 46.9898 18.9958C47.0041 18.9815 47.019 18.9681 47.0343 18.9556C47.266 18.7445 47.5723 18.6158 47.9071 18.6158L47.9071 18.6158Z" fill="white"/>
</svg>
