<svg width="75" height="75" viewBox="0 0 75 75" fill="none" xmlns="http://www.w3.org/2000/svg">
<path fill-rule="evenodd" clip-rule="evenodd" d="M38.529 30.7742L40.4757 31.3162L41.0532 29.238L41.677 29.5425C41.7621 29.584 41.851 29.6174 41.9423 29.6427C42.3327 29.7512 42.7467 29.6996 43.0992 29.5004C43.4533 29.3004 43.711 28.9725 43.8199 28.5805C43.9284 28.1901 43.8768 27.776 43.6776 27.4235C43.4775 27.0695 43.1497 26.8118 42.7576 26.7028C42.6667 26.6776 42.5738 26.6605 42.4798 26.6521L41.7887 26.5907L42.3667 24.5144L40.2591 23.9288L40.5894 23.2961C40.6395 23.2001 40.6791 23.0989 40.7081 22.9945C40.8166 22.6042 40.765 22.1901 40.5658 21.8376C40.3657 21.4835 40.0379 21.2258 39.6458 21.1169C39.2555 21.0085 38.8414 21.06 38.489 21.2592C38.1349 21.4593 37.8772 21.7871 37.7682 22.1792C37.7395 22.2828 37.7216 22.3891 37.7152 22.4964L37.673 23.2101L35.5646 22.6243L33.6738 29.4252L35.9062 30.0455C35.9119 30.0471 35.9188 30.049 35.9188 30.0509C35.9237 29.9366 35.9167 30.0057 35.9345 29.894C35.9522 29.783 35.9369 29.8528 35.9685 29.7388C36.0672 29.3836 36.3012 29.0829 36.6222 28.9014C36.9433 28.7199 37.3245 28.6743 37.6798 28.773C38.035 28.8716 38.3357 29.1056 38.5172 29.4266C38.6986 29.7477 38.7442 30.1288 38.6456 30.484C38.6154 30.593 38.6384 30.5254 38.5939 30.6351C38.5614 30.7156 38.583 30.6747 38.5352 30.7623C38.5332 30.7659 38.5309 30.7701 38.529 30.7742L38.529 30.7742Z" fill="white"/>
<path d="M59.6092 21.521C59.9156 21.521 60.1641 21.7695 60.1641 22.0759C60.1641 22.3824 59.9156 22.6309 59.6092 22.6309C58.9788 22.6309 58.3748 22.5228 57.826 22.3408C57.2233 22.1408 56.6901 21.8497 56.264 21.5134C55.9192 21.2413 55.6404 20.9365 55.4462 20.6222C55.2331 20.2773 55.1167 19.9174 55.1167 19.5667C55.1167 19.2602 55.3652 19.0117 55.6716 19.0117C56.3024 19.0117 56.841 19.1329 57.0807 19.521C57.2083 19.7276 58.1079 19.602 58.3507 19.7936C58.6805 20.0539 58.65 20.2085 59.1267 20.3666C59.5607 20.5106 59.0925 21.521 59.6092 21.521V21.521Z" fill="white"/>
<path d="M55.9564 20.8253C56.1611 21.0527 56.1427 21.4031 55.9152 21.6078C55.5713 21.9168 55.1549 22.1815 54.6898 22.364C54.2614 22.532 53.7926 22.6307 53.302 22.6307C52.9955 22.6307 53.5178 22.3822 53.5178 22.0757C53.5178 21.7693 53.4772 20.8994 53.7837 20.8994C54.1328 20.8994 54.1474 19.9914 54.4504 19.8725C54.7861 19.7408 55.9048 20.7679 55.9564 20.8253L55.9564 20.8253Z" fill="white"/>
<path d="M56.8108 18.7671C57.8272 18.7671 58.7475 19.1791 59.4136 19.8453C60.0797 20.5114 60.4917 21.4316 60.4917 22.448C60.4917 23.4793 60.0546 24.6542 59.3574 25.5297C58.7026 26.352 57.8114 26.9285 56.8108 26.9285C55.8102 26.9285 54.919 26.352 54.2642 25.5297C53.567 24.6542 53.1299 23.4793 53.1299 22.448C53.1299 21.4316 53.542 20.5114 54.2081 19.8453C54.8742 19.1791 55.7944 18.7671 56.8108 18.7671H56.8108ZM58.6288 20.63C58.1636 20.1647 57.5208 19.877 56.8108 19.877C56.1008 19.877 55.458 20.1647 54.9928 20.63C54.5276 21.0952 54.2398 21.738 54.2398 22.448C54.2398 23.24 54.5833 24.1522 55.1313 24.8403C55.5892 25.4154 56.1819 25.8185 56.8108 25.8185C57.4397 25.8185 58.0324 25.4154 58.4904 24.8403C59.0383 24.1522 59.3818 23.24 59.3818 22.448C59.3818 21.738 59.094 21.0952 58.6288 20.63H58.6288Z" fill="white"/>
<path fill-rule="evenodd" clip-rule="evenodd" d="M57.6862 27.652L57.6882 27.6597L57.4948 27.7111C57.2714 27.7705 57.0419 27.8009 56.8107 27.8009C56.5787 27.8009 56.3486 27.7699 56.1245 27.71C55.891 27.6475 55.664 27.5615 55.4532 27.4424C55.3688 27.3947 55.2736 27.3724 55.177 27.3881C54.8463 27.4421 54.5185 27.5247 54.2046 27.6426C53.9168 27.7507 53.6376 27.8908 53.3854 28.0671C52.4025 28.7539 51.3537 29.0751 50.1629 28.8303C49.2204 28.6366 48.3559 28.1322 47.5318 27.6555C46.9366 27.3112 46.3345 26.9804 45.7039 26.7046C45.6929 26.6998 45.6817 26.6946 45.6704 26.6905C45.0475 26.4592 44.3556 26.4673 43.8035 26.8685C43.5858 27.0267 43.4112 27.2362 43.2951 27.4789C43.1786 27.7223 43.1253 27.9905 43.143 28.2602C43.1874 28.9399 43.6578 29.4634 44.2109 29.8116C45.5158 30.6329 46.8556 31.4945 48.3001 32.0515C49.44 32.491 50.7036 32.7792 51.9271 32.5891L52.1548 32.5538L52.1612 32.7841C52.2266 35.1163 52.2649 37.7147 52.2896 40.048H60.9285C60.9533 37.6929 60.9908 35.0727 61.0523 32.7188L61.0667 32.1676L61.4132 32.5964C61.5884 32.8132 61.7424 33.0467 61.8729 33.2929C62.2112 33.9313 62.3869 34.6455 62.3869 35.3679V39.3189C62.3869 40.022 62.6785 40.674 63.337 40.984C63.546 41.0824 63.7748 41.1347 64.006 41.1347C64.2372 41.1347 64.466 41.0824 64.6751 40.984C65.3336 40.6741 65.6252 40.0221 65.6252 39.3189V35.3679C65.6252 33.3268 64.8612 31.2922 63.4914 29.7753C62.1742 28.3164 60.382 27.5284 58.4299 27.3867C58.3448 27.3805 58.2582 27.3913 58.1824 27.4324C58.0232 27.5187 57.8575 27.5933 57.6862 27.652V27.652ZM57.42 29.8197V36.3237L56.8107 36.933L56.2015 36.3237V29.8843L55.9263 30.0299C55.7283 30.1341 55.4832 30.0581 55.3789 29.8601C55.2747 29.6621 55.3507 29.417 55.5487 29.3127L56.6794 28.7144L56.6817 28.7132L56.6829 28.7125C56.797 28.6526 56.9378 28.6479 57.0605 28.7125L58.0728 29.2482C58.2709 29.3525 58.3468 29.5976 58.2426 29.7956C58.1384 29.9936 57.8933 30.0696 57.6952 29.9654L57.42 29.8197ZM52.3013 40.9267C52.3036 41.1825 52.3057 41.513 52.3077 41.7688C52.3362 45.4517 52.3368 49.1347 52.3362 52.8177L52.336 54.357C52.3575 54.8217 52.5257 55.277 52.8308 55.6312C53.1518 56.0039 53.5971 56.2328 54.0932 56.2328C54.5893 56.2328 55.0347 56.004 55.3557 55.6312C55.683 55.2511 55.8528 54.7547 55.8528 54.2551V43.7659L55.9461 43.7059C56.1449 43.5783 56.3753 43.5023 56.6124 43.5023H56.6148C56.8482 43.5023 57.0736 43.5685 57.2676 43.6989L57.3574 43.7593V54.2551C57.3574 54.7547 57.5271 55.251 57.8545 55.6312C58.1755 56.0039 58.6208 56.2328 59.1169 56.2328C59.613 56.2328 60.0584 56.0039 60.3793 55.6312C60.7068 55.251 60.8765 54.7547 60.8765 54.2551C60.8765 50.5168 60.8762 46.7782 60.9011 43.04C60.9056 42.3605 60.9107 41.6062 60.9168 40.9267H52.3013V40.9267Z" fill="white"/>
<path d="M15.3909 21.521C15.0844 21.521 14.8359 21.7695 14.8359 22.0759C14.8359 22.3824 15.0844 22.6309 15.3909 22.6309C16.0212 22.6309 16.6252 22.5228 17.174 22.3408C17.7767 22.1408 18.3099 21.8497 18.7361 21.5134C19.0809 21.2413 19.3596 20.9365 19.5538 20.6222C19.7669 20.2773 19.8833 19.9174 19.8833 19.5667C19.8833 19.2602 19.6348 19.0117 19.3284 19.0117C18.6976 19.0117 18.1591 19.1329 17.9193 19.521C17.7917 19.7276 16.8921 19.602 16.6493 19.7936C16.3195 20.0539 16.3501 20.2085 15.8734 20.3666C15.4394 20.5106 15.9075 21.521 15.3909 21.521L15.3909 21.521Z" fill="white"/>
<path d="M19.0441 20.8253C18.8394 21.0527 18.8578 21.4031 19.0853 21.6078C19.4293 21.9168 19.8456 22.1815 20.3107 22.364C20.7391 22.532 21.2079 22.6307 21.6985 22.6307C22.005 22.6307 21.4828 22.3822 21.4828 22.0757C21.4828 21.7693 21.5233 20.8994 21.2168 20.8994C20.8677 20.8994 20.8532 19.9914 20.5501 19.8725C20.2144 19.7408 19.0957 20.7679 19.0441 20.8253L19.0441 20.8253Z" fill="white"/>
<path d="M18.1892 18.7671C17.1728 18.7671 16.2525 19.1791 15.5864 19.8453C14.9203 20.5114 14.5083 21.4316 14.5083 22.448C14.5083 23.4793 14.9454 24.6542 15.6426 25.5297C16.2974 26.352 17.1887 26.9285 18.1892 26.9285C19.1898 26.9285 20.0811 26.352 20.7358 25.5297C21.4331 24.6542 21.8701 23.4793 21.8701 22.448C21.8701 21.4316 21.4581 20.5114 20.792 19.8453C20.1258 19.1791 19.2056 18.7671 18.1892 18.7671H18.1892ZM16.3712 20.63C16.8364 20.1647 17.4792 19.877 18.1892 19.877C18.8992 19.877 19.542 20.1647 20.0072 20.63C20.4724 21.0952 20.7602 21.738 20.7602 22.448C20.7602 23.24 20.4167 24.1522 19.8687 24.8403C19.4108 25.4154 18.8181 25.8185 18.1892 25.8185C17.5603 25.8185 16.9676 25.4154 16.5097 24.8403C15.9617 24.1522 15.6182 23.24 15.6182 22.448C15.6182 21.738 15.906 21.0952 16.3712 20.63H16.3712Z" fill="white"/>
<path fill-rule="evenodd" clip-rule="evenodd" d="M17.3139 27.652L17.312 27.6597L17.5054 27.7111C17.7288 27.7705 17.9583 27.8009 18.1895 27.8009C18.4214 27.8009 18.6516 27.7699 18.8757 27.71C19.1092 27.6475 19.3362 27.5615 19.5469 27.4424C19.6314 27.3947 19.7266 27.3724 19.8231 27.3881C20.1539 27.4421 20.4816 27.5247 20.7956 27.6426C21.0833 27.7507 21.3626 27.8908 21.6148 28.0671C22.5977 28.7539 23.6464 29.0751 24.8373 28.8303C25.7798 28.6366 26.6442 28.1322 27.4684 27.6555C28.0636 27.3112 28.6657 26.9804 29.2963 26.7046C29.3073 26.6998 29.3185 26.6946 29.3297 26.6905C29.9527 26.4592 30.6446 26.4673 31.1967 26.8685C31.4143 27.0267 31.589 27.2362 31.705 27.4789C31.8216 27.7223 31.8749 27.9905 31.8572 28.2602C31.8127 28.9399 31.3424 29.4634 30.7892 29.8116C29.4844 30.6329 28.1446 31.4945 26.7001 32.0515C25.5602 32.491 24.2966 32.7792 23.0731 32.5891L22.8454 32.5538L22.8389 32.7841C22.7735 35.1163 22.7353 37.7147 22.7106 40.048H14.0717C14.0468 37.6929 14.0094 35.0727 13.9479 32.7188L13.9335 32.1676L13.587 32.5964C13.4118 32.8132 13.2578 33.0467 13.1273 33.2929C12.789 33.9313 12.6133 34.6455 12.6133 35.3679V39.3189C12.6133 40.022 12.3217 40.674 11.6632 40.984C11.4541 41.0824 11.2254 41.1347 10.9942 41.1347C10.763 41.1347 10.5342 41.0824 10.3251 40.984C9.66661 40.6741 9.375 40.0221 9.375 39.3189V35.3679C9.375 33.3268 10.139 31.2922 11.5087 29.7753C12.826 28.3164 14.6182 27.5284 16.5703 27.3867C16.6554 27.3805 16.742 27.3913 16.8178 27.4324C16.977 27.5187 17.1427 27.5933 17.3139 27.652L17.3139 27.652ZM17.5802 29.8197V36.3237L18.1895 36.933L18.7987 36.3237V29.8843L19.0739 30.0299C19.2719 30.1341 19.517 30.0581 19.6212 29.8601C19.7255 29.6621 19.6495 29.417 19.4515 29.3127L18.3208 28.7144L18.3185 28.7132L18.3173 28.7125C18.2031 28.6526 18.0624 28.6479 17.9397 28.7125L16.9273 29.2482C16.7293 29.3525 16.6533 29.5976 16.7576 29.7956C16.8618 29.9936 17.1069 30.0696 17.3049 29.9654L17.5802 29.8197H17.5802ZM22.6988 40.9267C22.6966 41.1825 22.6945 41.513 22.6925 41.7688C22.664 45.4517 22.6634 49.1347 22.6639 52.8177L22.6642 54.357C22.6427 54.8217 22.4745 55.277 22.1694 55.6312C21.8484 56.0039 21.4031 56.2328 20.9069 56.2328C20.4108 56.2328 19.9655 56.004 19.6445 55.6312C19.3171 55.2511 19.1474 54.7547 19.1474 54.2551V43.7659L19.0541 43.7059C18.8553 43.5783 18.6249 43.5023 18.3877 43.5023H18.3854C18.1519 43.5023 17.9266 43.5685 17.7326 43.6989L17.6428 43.7593V54.2551C17.6428 54.7547 17.4731 55.251 17.1456 55.6312C16.8247 56.0039 16.3794 56.2328 15.8832 56.2328C15.3871 56.2328 14.9418 56.0039 14.6209 55.6312C14.2934 55.251 14.1237 54.7547 14.1237 54.2551C14.1237 50.5168 14.124 46.7782 14.0991 43.04C14.0946 42.3605 14.0895 41.6062 14.0834 40.9267H22.6988V40.9267Z" fill="white"/>
<path fill-rule="evenodd" clip-rule="evenodd" d="M36.0619 41.5499V34.5839H34.2939V34.5817L33.7522 34.582C33.7439 34.582 33.7372 34.5796 33.7308 34.5744C33.716 34.5624 33.7139 34.5409 33.7259 34.5262C33.8329 34.3945 33.9164 34.245 33.9731 34.0852C34.03 33.9247 34.0579 33.7555 34.0579 33.5852C34.0579 33.189 33.9015 32.8111 33.6213 32.5309C33.3411 32.2507 32.9631 32.0942 32.5668 32.0942C32.1706 32.0942 31.7926 32.2507 31.5125 32.5308C31.2323 32.8111 31.0758 33.1889 31.0758 33.5852C31.0758 33.7555 31.1037 33.9246 31.1607 34.0851C31.2144 34.2366 31.2867 34.3791 31.39 34.5031C31.3973 34.5118 31.4157 34.5362 31.4174 34.548C31.4174 34.5682 31.4014 34.5839 31.3812 34.5839H29.0719V36.3991H29.0693L29.0695 36.9406C29.0695 36.9493 29.0668 36.9564 29.0609 36.9629C29.0484 36.9769 29.0272 36.9781 29.0131 36.9655C28.8776 36.8443 28.72 36.7499 28.5502 36.6851C28.3803 36.6202 28.1998 36.5879 28.0179 36.5879C27.6216 36.5879 27.2437 36.7444 26.9635 37.0245C26.6833 37.3048 26.5269 37.6826 26.5269 38.0789C26.5269 38.4752 26.6833 38.8531 26.9635 39.1334C27.2437 39.4135 27.6216 39.57 28.0179 39.57C28.1998 39.57 28.3803 39.5377 28.5503 39.4727C28.7105 39.4116 28.8605 39.3305 28.9875 39.214C28.997 39.2053 29.0229 39.1838 29.0362 39.1813C29.0563 39.1813 29.0719 39.1973 29.0719 39.2175V41.5499H30.5982V41.5472L30.9575 41.5473C30.9378 41.5056 30.9197 41.4631 30.9033 41.4199C30.8259 41.2171 30.7871 41.0016 30.7871 40.7846C30.7871 40.3118 30.974 39.8604 31.3083 39.5261C31.6426 39.1918 32.0941 39.0049 32.5668 39.0049C33.0397 39.0049 33.4911 39.1918 33.8254 39.5261C34.1598 39.8604 34.3466 40.3119 34.3466 40.7846C34.3466 41.0017 34.3079 41.2171 34.2304 41.42C34.2136 41.4641 34.1954 41.5074 34.1758 41.5499H36.0619L36.0619 41.5499Z" fill="white"/>
<path fill-rule="evenodd" clip-rule="evenodd" d="M35.8131 41.8387H33.7052C33.6851 41.8387 33.669 41.8232 33.669 41.803C33.6716 41.7898 33.6931 41.7638 33.7018 41.7543C33.8184 41.6273 33.8994 41.4773 33.9606 41.3171C34.0255 41.1471 34.0578 40.9666 34.0578 40.7847C34.0578 40.3884 33.9014 40.0105 33.6212 39.7303C33.341 39.4501 32.963 39.2937 32.5667 39.2937C32.1705 39.2937 31.7925 39.4502 31.5124 39.7303C31.2322 40.0105 31.0757 40.3884 31.0757 40.7847C31.0757 40.9666 31.1081 41.1471 31.1729 41.317C31.2377 41.4868 31.3322 41.6445 31.4534 41.78C31.4659 41.794 31.4647 41.8152 31.4507 41.8277C31.4442 41.8336 31.4371 41.8363 31.4284 41.8363L30.8869 41.8361V41.8387H29.0718V41.9063V44.1481C29.0718 44.1682 29.0559 44.1842 29.0359 44.1842C29.024 44.1824 28.9995 44.1641 28.9909 44.1568C28.8669 44.0536 28.7243 43.9811 28.5729 43.9275C28.4124 43.8705 28.2433 43.8426 28.0731 43.8426C27.6768 43.8426 27.2989 43.9991 27.0187 44.2793C26.7385 44.5594 26.582 44.9374 26.582 45.3337C26.582 45.73 26.7385 46.1079 27.0187 46.3881C27.2988 46.6682 27.6768 46.8247 28.0731 46.8247C28.2432 46.8247 28.4124 46.7968 28.5729 46.7399C28.7327 46.6832 28.8823 46.5998 29.0139 46.4928C29.0287 46.4808 29.0501 46.4828 29.0622 46.4976C29.0674 46.504 29.0698 46.5107 29.0698 46.519L29.0695 47.0607H29.0718V48.8287H35.8131V47.3494H35.8106L35.8109 46.9683C35.7743 46.9841 35.7371 46.9987 35.6996 47.012C35.5081 47.0799 35.3061 47.1135 35.1031 47.1135C34.6303 47.1135 34.1789 46.9266 33.8446 46.5923C33.5102 46.258 33.3234 45.8065 33.3234 45.3337C33.3234 44.8608 33.5103 44.4094 33.8446 44.0751C34.1789 43.7408 34.6303 43.5539 35.1031 43.5539C35.3061 43.5539 35.508 43.5875 35.6994 43.6553C35.7378 43.6689 35.7758 43.6836 35.8131 43.6994V41.8387L35.8131 41.8387Z" fill="white"/>
<path fill-rule="evenodd" clip-rule="evenodd" d="M43.0916 48.8287V41.8387H40.735C40.7149 41.8387 40.6988 41.8232 40.6988 41.803C40.7013 41.7897 40.7229 41.7638 40.7316 41.7543C40.8481 41.6273 40.9292 41.4773 40.9904 41.3171C41.0552 41.1471 41.0875 40.9666 41.0875 40.7847C41.0875 40.3884 40.9311 40.0105 40.6509 39.7303C40.3707 39.4502 39.9928 39.2937 39.5965 39.2937C39.2003 39.2937 38.8223 39.4502 38.5421 39.7303C38.262 40.0105 38.1055 40.3884 38.1055 40.7847C38.1055 40.9666 38.1378 41.1471 38.2027 41.317C38.2675 41.4868 38.3619 41.6445 38.4831 41.78C38.4957 41.794 38.4945 41.8152 38.4805 41.8277C38.474 41.8336 38.467 41.8363 38.4582 41.8363L37.9166 41.8361V41.8387H36.1016V44.1481C36.1016 44.1682 36.0857 44.1842 36.0657 44.1842C36.0538 44.1825 36.0293 44.1641 36.0206 44.1568C35.8967 44.0536 35.7541 43.9811 35.6026 43.9275C35.4422 43.8706 35.273 43.8427 35.1028 43.8427C34.7066 43.8427 34.3287 43.9991 34.0485 44.2793C33.7683 44.5595 33.6118 44.9374 33.6118 45.3337C33.6118 45.73 33.7683 46.1079 34.0485 46.3881C34.3286 46.6682 34.7066 46.8248 35.1028 46.8248C35.273 46.8248 35.4423 46.7969 35.6027 46.7399C35.7625 46.6832 35.9121 46.5998 36.0437 46.4928C36.0585 46.4808 36.0799 46.4828 36.092 46.4976C36.0971 46.504 36.0997 46.5107 36.0997 46.519L36.0993 47.0607H36.1016V48.8287H43.0916L43.0916 48.8287Z" fill="white"/>
</svg>
