<svg width="75" height="75" viewBox="0 0 75 75" fill="none" xmlns="http://www.w3.org/2000/svg">
<path d="M50.2009 47.7149L53.7861 64.2062C53.9226 64.8382 53.5209 65.4613 52.8889 65.5978C52.5696 65.6667 52.2526 65.5983 51.9995 65.4322L37.5005 56.9746L22.9451 65.465C22.3864 65.7886 21.6711 65.598 21.3475 65.0393C21.1958 64.7773 21.1572 64.4808 21.2165 64.2065L21.2148 64.2062L24.7999 47.7144C25.1969 48.3273 25.6938 48.8544 26.3793 49.2559C26.4226 49.2813 26.4663 49.3059 26.5104 49.3298C27.8649 50.0641 29.2162 49.9396 30.6829 49.7552L30.8347 49.7361C31.2396 49.6932 31.9329 49.6122 32.1467 49.671C32.4379 49.7511 33.1089 50.281 33.3616 50.4721C34.632 51.4328 35.8291 52.2701 37.5005 52.2701C39.1719 52.2701 40.3691 51.4328 41.6394 50.4721C41.8921 50.281 42.5632 49.7511 42.8544 49.671C43.1464 49.5907 44.0033 49.7156 44.3181 49.7551L45.4816 49.9015L45.4854 49.8716C46.5157 49.9403 47.5042 49.8634 48.4894 49.3304C48.534 49.3063 48.5781 49.2814 48.6219 49.2558C49.307 48.8544 49.8039 48.3276 50.2009 47.7148V47.7149Z" fill="white"/>
<path fill-rule="evenodd" clip-rule="evenodd" d="M26.9712 12.2289C25.8527 12.8841 25.3928 14.0303 24.9342 15.1736C24.6732 15.8242 24.4126 16.4737 24.0749 16.8115C23.7371 17.1492 23.0877 17.4098 22.437 17.6708C21.2938 18.1294 20.1475 18.5893 19.4923 19.7079C18.8407 20.8202 18.9945 22.0433 19.1491 23.273C19.2391 23.9888 19.3295 24.7078 19.1959 25.1937C19.0689 25.6553 18.6365 26.227 18.1996 26.8048C17.4246 27.8294 16.6387 28.8687 16.6387 30.2368C16.6387 31.6049 17.4246 32.6441 18.1995 33.6688C18.6365 34.2466 19.0689 34.8183 19.1959 35.2799C19.3295 35.7658 19.2391 36.4848 19.1491 37.2006C18.9945 38.4303 18.8407 39.6534 19.4924 40.7658C20.1475 41.8844 21.2938 42.3442 22.437 42.8028C23.0877 43.0638 23.7372 43.3244 24.0749 43.6622C24.4127 44 24.6732 44.6495 24.9343 45.3001C25.0179 45.5085 25.1015 45.7169 25.1892 45.9225C25.5824 46.8449 26.0566 47.709 26.9713 48.2448C27.0036 48.2637 27.0361 48.282 27.0687 48.2997C28.1608 48.8913 29.3455 48.7423 30.5365 48.5926L30.5359 48.5881L30.5365 48.588C31.2523 48.498 31.9713 48.4076 32.4572 48.5412C32.9188 48.6682 33.4904 49.1005 34.0683 49.5375C35.0929 50.3124 36.1321 51.0984 37.5003 51.0984C38.8684 51.0984 39.9076 50.3124 40.9324 49.5375C41.5102 49.1005 42.0819 48.6682 42.5435 48.5412C43.0179 48.4108 43.7427 48.5019 44.4641 48.5926L44.4646 48.5881C45.6583 48.7381 46.8456 48.8873 47.9316 48.2998C47.9643 48.2821 47.9968 48.2638 48.0293 48.2448C48.9437 47.7091 49.418 46.8453 49.8112 45.9232C49.8989 45.7174 49.9826 45.5087 50.0663 45.3001C50.3273 44.6494 50.5879 43.9999 50.9257 43.6622C51.2635 43.3244 51.9129 43.0638 52.5636 42.8028C53.7068 42.3442 54.8531 41.8844 55.5082 40.7658C56.1599 39.6534 56.0061 38.4303 55.8515 37.2006C55.7615 36.4849 55.6711 35.7658 55.8047 35.28C55.9317 34.8184 56.3641 34.2466 56.801 33.6688C57.576 32.6442 58.3619 31.6049 58.3619 30.2368C58.3619 28.8687 57.5759 27.8295 56.801 26.8048C56.364 26.227 55.9317 25.6553 55.8047 25.1937C55.6711 24.7078 55.7615 23.9888 55.8515 23.273C56.0061 22.0433 56.1599 20.8201 55.5082 19.7078C54.853 18.5893 53.7068 18.1294 52.5636 17.6708C51.9129 17.4098 51.2634 17.1492 50.9256 16.8114C50.5879 16.4737 50.3273 15.8242 50.0663 15.1736C49.6077 14.0303 49.1478 12.8841 48.0293 12.2288C46.9104 11.5735 45.6905 11.7269 44.4641 11.881L44.4646 11.8856L44.4641 11.8856C43.7483 11.9756 43.0293 12.066 42.5434 11.9324C42.0818 11.8055 41.5101 11.3731 40.9323 10.9361C39.9077 10.1612 38.8684 9.37524 37.5003 9.37524C36.1321 9.37524 35.0929 10.1612 34.0682 10.9361C33.4904 11.3731 32.9187 11.8055 32.4571 11.9324C31.9827 12.0629 31.258 11.9718 30.5365 11.8811L30.536 11.8856C29.3065 11.731 28.0835 11.5774 26.9712 12.2289L26.9712 12.2289ZM37.5003 17.3082C41.0703 17.3082 44.3025 18.7554 46.6421 21.095C48.9817 23.4346 50.4288 26.6668 50.4288 30.2368C50.4288 33.8069 48.9817 37.0391 46.6421 39.3786C44.3025 41.7183 41.0703 43.1654 37.5003 43.1654C33.9302 43.1654 30.698 41.7183 28.3585 39.3786C26.0188 37.039 24.5717 33.8069 24.5717 30.2368C24.5717 26.6668 26.0188 23.4346 28.3585 21.095C30.698 18.7554 33.9302 17.3082 37.5003 17.3082Z" fill="white"/>
<path d="M30.4829 28.2756L28.3584 30.4001L35.0522 37.094L37.1767 34.9694L30.4829 28.2756Z" fill="white"/>
<path d="M46.6421 25.5041L44.5176 23.3796L32.9278 34.9694L35.0523 37.0939L46.6421 25.5041Z" fill="white"/>
</svg>
