<svg width="18" height="20" viewBox="0 0 18 20" fill="none" xmlns="http://www.w3.org/2000/svg">
<path d="M16.7181 8.115C16.624 8.01833 16.2684 7.605 15.9372 7.265C13.9953 5.12667 8.92953 1.62667 6.27813 0.558333C5.87547 0.386667 4.85744 0.0233333 4.31352 0C3.79234 0 3.2955 0.12 2.8214 0.363333C2.2304 0.703333 1.75629 1.23833 1.49651 1.87C1.32928 2.30833 1.06949 3.62 1.06949 3.64333C0.80971 5.07833 0.666828 7.41 0.666828 9.98667C0.666828 12.4417 0.80971 14.6783 1.02241 16.135C1.04676 16.1583 1.30654 17.7883 1.59068 18.3467C2.11187 19.3667 3.12989 20 4.21935 20H4.31352C5.02306 19.975 6.51518 19.3417 6.51518 19.3183C9.02371 18.2483 13.9726 14.92 15.9615 12.7083C15.9615 12.7083 16.5217 12.14 16.7652 11.785C17.1452 11.275 17.3335 10.6433 17.3335 10.0117C17.3335 9.30667 17.1208 8.65 16.7181 8.115Z" fill="white"/>
</svg>
