<svg width="75" height="75" viewBox="0 0 75 75" fill="none" xmlns="http://www.w3.org/2000/svg">
<path fill-rule="evenodd" clip-rule="evenodd" d="M14.2687 31.0665C14.2687 30.1018 14.3413 27.7306 14.4804 25.6723C14.5764 24.2525 14.7096 22.9659 14.8833 22.3405C15.9764 18.4064 18.4509 15.2563 21.7079 13.0468C25.1141 10.7361 29.379 9.46096 33.8001 9.40663C36.3221 9.37566 38.7312 9.77398 40.959 10.533C43.2775 11.3228 45.4054 12.503 47.2655 13.9963C48.5559 15.0322 49.7754 16.4878 50.8048 18.2098C51.7949 19.8659 52.6145 21.773 53.1553 23.7911C54.1506 27.5057 54.4678 30.7375 53.9406 34.3572C53.8753 34.8052 53.7971 35.2584 53.7055 35.7187L46.2866 33.0515V32.7999C46.2866 31.5091 45.2394 30.4619 43.9486 30.4619C43.1345 30.4619 42.4173 30.8784 41.9986 31.51L29.9359 27.1733C28.8925 26.7982 27.7558 27.2145 27.1825 28.1108C27.0534 28.296 26.9533 28.5057 26.8906 28.735L22.462 44.9148C21.7773 45.2456 21.3046 45.9468 21.3046 46.7579C21.3046 48.7677 22.0969 50.6799 23.5178 52.1008C24.9387 53.5215 26.8508 54.3139 28.8606 54.3139C30.8703 54.3139 32.7826 53.5216 34.2034 52.1007C35.6242 50.6799 36.4166 48.7677 36.4166 46.7579C36.4166 45.9468 35.9439 45.2455 35.2591 44.9147L31.9594 32.8593L41.6106 36.329V60.1296L34.2641 65.5112H27.1299C26.4843 65.5112 25.9609 64.9878 25.9609 64.3422C25.9609 62.8614 26.08 61.5663 26.1789 60.4902C26.2413 59.8108 26.2948 59.2297 26.2948 58.7053C26.2948 57.8355 25.9105 57.4757 24.1195 57.4757C23.2683 57.4757 22.6175 57.494 21.9747 57.5121C18.4071 57.6126 15.0373 57.7074 13.6777 55.3582L13.6757 55.3594C13.2973 54.7042 13.2251 52.9279 13.3134 50.8883C13.3982 48.9267 13.6087 46.6355 13.8189 44.9635C11.8019 44.9607 10.8106 44.9556 9.65911 43.6219C9.42861 43.3555 9.34024 43.0145 9.38717 42.6912C9.70902 40.0848 14.2687 32.5334 14.2687 31.0665L14.2687 31.0665ZM52.4682 40.2324C51.7844 42.2443 50.8866 44.4403 49.7558 46.9189C48.9442 48.6978 48.1854 50.8647 47.6245 53.6762C47.2361 55.6224 46.9458 57.872 46.8023 60.5074L46.2866 60.1297V38.0101L52.4682 40.2324L52.4682 40.2324ZM26.752 44.7123H30.9693L28.8607 37.0083L26.752 44.7123Z" fill="white"/>
<path d="M42.7798 32.7998C42.7798 32.1542 43.3032 31.6308 43.9488 31.6308C44.5944 31.6308 45.1178 32.1542 45.1178 32.7998V64.4261C45.1178 65.0717 44.5944 65.5951 43.9488 65.5951C43.3032 65.5951 42.7798 65.0717 42.7798 64.4261V32.7998Z" fill="white"/>
<path d="M59.1424 38.9155C59.7476 39.1323 60.0624 39.7988 59.8456 40.4041C59.6287 41.0094 58.9622 41.3242 58.3569 41.1073L28.7551 30.4652C28.1499 30.2483 27.8351 29.5818 28.0519 28.9765C28.2688 28.3713 28.9353 28.0565 29.5406 28.2734L59.1424 38.9155Z" fill="white"/>
<path d="M58.3954 40.1608C58.5222 39.6955 59.0021 39.4211 59.4673 39.5478C59.9326 39.6745 60.2071 40.1545 60.0804 40.6197L55.312 58.041C55.1853 58.5062 54.7054 58.7807 54.2401 58.654C53.7749 58.5273 53.5004 58.0473 53.6271 57.582L58.3954 40.1608Z" fill="white"/>
<path d="M58.3957 40.6198C58.2689 40.1546 58.5434 39.6746 59.0087 39.5478C59.4739 39.4212 59.9539 39.6956 60.0806 40.1609L64.849 57.5821C64.9757 58.0474 64.7012 58.5273 64.2359 58.6541C63.7707 58.7808 63.2907 58.5063 63.164 58.041L58.3957 40.6198Z" fill="white"/>
<path d="M59.2381 56.9986H64.7483C65.2325 56.9986 65.6251 57.3911 65.6251 57.8753C65.6251 59.6389 64.9101 61.2357 63.7543 62.3915C62.5985 63.5473 61.0017 64.2623 59.2381 64.2623C57.4745 64.2623 55.8776 63.5473 54.7219 62.3915C53.566 61.2357 52.8511 59.6389 52.8511 57.8753C52.8511 57.3911 53.2436 56.9986 53.7278 56.9986H59.2381Z" fill="white"/>
<path d="M28.0182 29.5024C27.8915 29.0371 28.166 28.5572 28.6312 28.4305C29.0965 28.3037 29.5765 28.5782 29.7031 29.0435L34.4715 46.4647C34.5982 46.93 34.3237 47.4099 33.8585 47.5367C33.3933 47.6634 32.9133 47.3889 32.7865 46.9236L28.0182 29.5024V29.5024Z" fill="white"/>
<path d="M28.8606 45.8811H34.3709C34.8551 45.8811 35.2476 46.2737 35.2476 46.7579C35.2476 48.5215 34.5327 50.1183 33.3769 51.2741C32.2211 52.43 30.6243 53.1449 28.8606 53.1449C27.097 53.1449 25.5002 52.4299 24.3444 51.2741C23.1885 50.1183 22.4736 48.5215 22.4736 46.7579C22.4736 46.2737 22.8662 45.8811 23.3504 45.8811H28.8606H28.8606Z" fill="white"/>
<path fill-rule="evenodd" clip-rule="evenodd" d="M51.7692 65.5949H36.1279L43.9487 59.866L51.7692 65.5949Z" fill="white"/>
<path d="M29.7029 29.5024C29.8297 29.0371 29.5552 28.5572 29.0899 28.4305C28.6247 28.3037 28.1447 28.5782 28.018 29.0435L23.2497 46.4647C23.1229 46.93 23.3974 47.4099 23.8627 47.5367C24.3279 47.6634 24.8079 47.3889 24.9346 46.9236L29.7029 29.5024V29.5024Z" fill="white"/>
</svg>
