<svg width="75" height="75" viewBox="0 0 75 75" fill="none" xmlns="http://www.w3.org/2000/svg">
<path d="M52.8845 9.9492C54.3821 9.9492 55.7382 10.5564 56.7197 11.5379C57.7012 12.5195 58.3084 13.8755 58.3084 15.3732C58.3084 16.8884 57.6667 18.6141 56.6431 19.8995C55.6782 21.1111 54.3631 21.9605 52.8845 21.9605C51.4058 21.9605 50.0907 21.1111 49.1258 19.8995C48.1022 18.6141 47.4604 16.8884 47.4604 15.3732C47.4604 13.8755 48.0676 12.5194 49.0492 11.5379C50.0307 10.5563 51.3868 9.9492 52.8845 9.9492H52.8845Z" fill="white"/>
<path fill-rule="evenodd" clip-rule="evenodd" d="M46.5686 62.6214C46.6096 63.5674 47.0226 64.426 47.921 64.843C48.2151 64.9794 48.5367 65.0508 48.8609 65.0508C49.1851 65.0508 49.5067 64.9794 49.8007 64.8429C50.7489 64.403 51.1565 63.471 51.1565 62.4635V49.8073C51.1565 49.6438 51.1511 49.4794 51.1491 49.3158C51.1476 49.1949 51.1461 49.074 51.1455 48.9531C51.1416 48.1616 51.1332 46.9224 51.8753 46.4318C52.0739 46.3006 52.3009 46.2389 52.5381 46.2389C52.8639 46.2389 53.1708 46.3326 53.421 46.5456C53.9846 47.0254 54.02 47.906 54.02 48.5905C54.02 48.7994 54.0189 49.0079 54.0147 49.2167C54.0105 49.4205 54.0031 49.6271 54.003 49.8308V62.4636C54.003 63.4711 54.4106 64.403 55.3588 64.843C55.6528 64.9795 55.9744 65.0508 56.2986 65.0508C56.6228 65.0508 56.9444 64.9794 57.2385 64.843C58.1867 64.403 58.5942 63.471 58.5942 62.4636C58.5942 56.4067 58.5977 50.3499 58.6445 44.2931C58.6483 43.8003 58.6524 43.3076 58.6568 42.8147H46.5172C46.5205 43.2018 46.5237 43.5889 46.5267 43.9759C46.5689 49.4291 46.5698 54.8823 46.569 60.3356L46.5687 62.6213L46.5686 62.6214ZM58.6735 41.0636C58.71 37.5419 58.7646 34.0197 58.8567 30.4996L58.8973 28.9437L59.8898 30.1427C60.1821 30.4958 60.4376 30.8787 60.6523 31.2837C61.1768 32.2735 61.4493 33.3806 61.4493 34.5005V40.3501C61.4493 41.2688 61.814 42.1286 62.6782 42.5354C62.9466 42.6617 63.2402 42.7289 63.537 42.7289C63.8338 42.7289 64.1275 42.6617 64.3958 42.5354C65.26 42.1287 65.6248 41.2688 65.6248 40.3501V34.5005C65.6248 31.5552 64.5222 28.6169 62.5455 26.4279C60.6413 24.319 58.0638 23.1376 55.2252 22.9921L55.2058 22.9912C54.4095 22.9504 53.6139 22.9621 52.8171 22.9662L52.5737 22.9675C51.7569 22.9717 50.9617 23.09 50.1862 23.3485C49.6177 23.538 49.1101 23.7899 48.5825 24.0683C48.444 24.1414 48.3056 24.2145 48.1668 24.2872C48.0028 24.3732 47.8584 24.4621 47.6523 24.4353C46.7692 24.3203 45.8573 23.6828 45.2206 23.0877C44.6418 22.5466 43.8873 21.6639 43.7935 20.8475C43.732 20.3117 44.1533 19.5969 44.4242 19.153C44.8884 18.3921 45.4212 17.6455 45.9883 16.9571C46.4837 16.3557 46.7044 15.6172 46.4714 14.8603C46.3699 14.5302 46.192 14.2243 45.9568 13.9716C45.7163 13.713 45.4189 13.5117 45.0874 13.3892C44.2553 13.0818 43.4193 13.3202 42.728 13.8266L42.6551 13.8828C42.6524 13.8848 42.6499 13.8869 42.6473 13.889C41.7045 14.6729 40.9299 15.818 40.3767 16.9065C39.8155 18.0107 39.3141 19.3948 39.2137 20.6365C39.0926 22.1336 39.7454 23.4969 40.6157 24.6735C42.0059 26.5531 44.1363 28.2205 46.0408 29.5451L46.2822 29.7131L46.2909 30.007C46.4002 33.691 46.4617 37.3777 46.5004 41.0637H58.6735L58.6735 41.0636Z" fill="white"/>
<path fill-rule="evenodd" clip-rule="evenodd" d="M13.2425 43.2334L13.8019 43.0051C14.0832 42.8903 14.3635 42.7733 14.6439 42.6565C17.5666 41.4381 20.2946 40.3349 23.4265 41.6292L24.1081 41.9109L24.2257 41.1829C24.4672 39.6887 25.2367 38.2917 26.1635 37.1133C27.4463 35.4821 29.216 34.023 31.0443 33.0444L31.5539 32.7716L30.3671 30.5007L32.1441 31.0545L37.0945 32.6065L34.9847 39.3361L33.5658 36.6213L33.0319 36.9525C31.4046 37.9617 28.5077 39.8586 28.4501 41.9983C28.4332 42.6255 28.6382 43.247 28.9413 43.7898C29.3054 44.442 29.8251 45.0101 30.4082 45.4733L44.2353 56.4578V56.7396C44.2352 57.8693 44.2348 58.9991 44.2346 60.1288L44.2345 60.7124H44.2308V61.7896L43.2712 60.9814C38.0991 56.6256 32.3906 52.957 27.2455 48.5651C25.388 46.9795 23.1861 45.406 20.6266 45.4975C19.0351 45.5543 17.4343 46.2198 15.9668 46.7932C15.7336 46.8842 15.5005 46.9752 15.267 47.0651L14.7301 47.2718L15.7808 50.1243L9.375 47.1673L12.3324 40.7608L12.7752 41.9689L12.7766 41.9684L13.2425 43.2335L13.2425 43.2334Z" fill="white"/>
</svg>
