<svg width="75" height="75" viewBox="0 0 75 75" fill="none" xmlns="http://www.w3.org/2000/svg">
<path d="M22.5187 20.5664C22.9216 20.5664 23.2866 20.7299 23.5507 20.994C23.8148 21.2581 23.9782 21.623 23.9782 22.026C23.9782 22.429 23.8148 22.7939 23.5507 23.058C23.2866 23.3221 22.9216 23.4856 22.5187 23.4856C22.1157 23.4856 21.7507 23.3221 21.4866 23.058C21.2225 22.7939 21.0591 22.429 21.0591 22.026C21.0591 21.623 21.2225 21.2581 21.4866 20.994C21.7507 20.7299 22.1157 20.5664 22.5187 20.5664Z" fill="white"/>
<path d="M47.1693 20.9939C47.4334 20.7298 47.7983 20.5663 48.2013 20.5663C48.6043 20.5663 48.9692 20.7298 49.2333 20.9939C49.4974 21.258 49.6609 21.6229 49.6609 22.0259C49.6609 22.4289 49.4974 22.7938 49.2333 23.058C48.9692 23.3221 48.6043 23.4855 48.2013 23.4855C47.7983 23.4855 47.4334 23.3221 47.1693 23.058C46.9052 22.7938 46.7417 22.4289 46.7417 22.0259C46.7417 21.623 46.9052 21.258 47.1693 20.9939Z" fill="white"/>
<path d="M27.7053 17.4662C28.4289 17.4662 29.0842 17.7596 29.5585 18.2339C30.0327 18.7081 30.3262 19.3634 30.3262 20.087C30.3262 20.8107 30.0327 21.4659 29.5585 21.9401C29.0842 22.4144 28.4289 22.7078 27.7053 22.7078C26.9817 22.7078 26.3264 22.4144 25.8522 21.9401C25.3779 21.4659 25.0845 20.8107 25.0845 20.087C25.0845 19.3634 25.3779 18.7081 25.8522 18.2339C26.3264 17.7596 26.9817 17.4662 27.7053 17.4662Z" fill="white"/>
<path d="M41.1617 18.2339C41.636 17.7596 42.2913 17.4662 43.0149 17.4662C43.7385 17.4662 44.3938 17.7596 44.868 18.2339C45.3423 18.7081 45.6357 19.3634 45.6357 20.0871C45.6357 20.8107 45.3423 21.4659 44.868 21.9402C44.3938 22.4144 43.7385 22.7079 43.0149 22.7079C42.2913 22.7079 41.636 22.4144 41.1617 21.9402C40.6875 21.4659 40.394 20.8107 40.394 20.0871C40.394 19.3634 40.6875 18.7081 41.1617 18.2339Z" fill="white"/>
<path d="M35.3597 14.0625C36.4039 14.0625 37.3496 14.4859 38.034 15.1703C38.7184 15.8548 39.1418 16.8003 39.1418 17.8446C39.1418 18.8888 38.7184 19.8345 38.034 20.5189C37.3496 21.2033 36.4039 21.6267 35.3597 21.6267C34.3155 21.6267 33.3698 21.2033 32.6854 20.5189C32.001 19.8345 31.5776 18.8888 31.5776 17.8446C31.5776 16.8003 32.001 15.8548 32.6854 15.1703C33.3698 14.4859 34.3155 14.0625 35.3597 14.0625Z" fill="white"/>
<path d="M57.7923 30.2554C58.3141 30.2554 58.7372 30.6785 58.7372 31.2003C58.7372 31.7222 58.3141 32.1453 57.7923 32.1453C56.7189 32.1453 55.6904 31.9613 54.7559 31.6513C53.7297 31.3108 52.8217 30.8151 52.0961 30.2424C51.509 29.779 51.0343 29.2602 50.7037 28.725C50.3408 28.1377 50.1426 27.5249 50.1426 26.9276C50.1426 26.4058 50.5657 25.9827 51.0875 25.9827C52.1616 25.9827 53.0786 26.189 53.4868 26.8498C53.7041 27.2016 55.236 26.9877 55.6495 27.3141C56.211 27.7573 56.159 28.0205 56.9707 28.2898C57.7097 28.5349 56.9126 30.2554 57.7923 30.2554L57.7923 30.2554Z" fill="white"/>
<path d="M51.5718 29.0711C51.9204 29.4584 51.889 30.055 51.5016 30.4036C50.9159 30.9297 50.207 31.3804 49.4151 31.6911C48.6855 31.9773 47.8873 32.1453 47.0518 32.1453C46.53 32.1453 47.4193 31.7222 47.4193 31.2003C47.4193 30.6785 47.3502 29.1972 47.872 29.1972C48.4665 29.1972 48.4913 27.6511 49.0074 27.4487C49.579 27.2245 51.4838 28.9734 51.5718 29.0711L51.5718 29.0711Z" fill="white"/>
<path d="M53.0265 25.5662C54.7572 25.5662 56.3243 26.2678 57.4585 27.4021C58.5927 28.5363 59.2944 30.1033 59.2944 31.834C59.2944 33.5901 58.5502 35.5906 57.3629 37.0815C56.248 38.4817 54.7303 39.4632 53.0265 39.4632C51.3228 39.4632 49.8052 38.4817 48.6902 37.0815C47.503 35.5906 46.7588 33.5901 46.7588 31.834C46.7588 30.1033 47.4604 28.5363 48.5946 27.4021C49.7289 26.2678 51.2959 25.5662 53.0265 25.5662ZM56.1223 28.7383C55.3301 27.9461 54.2355 27.4561 53.0265 27.4561C51.8176 27.4561 50.723 27.9461 49.9309 28.7383C49.1388 29.5305 48.6487 30.625 48.6487 31.834C48.6487 33.1826 49.2336 34.7359 50.1667 35.9076C50.9465 36.8869 51.9557 37.5733 53.0265 37.5733C54.0974 37.5733 55.1067 36.8869 55.8864 35.9076C56.8195 34.7359 57.4045 33.1826 57.4045 31.834C57.4045 30.625 56.9144 29.5305 56.1222 28.7383H56.1223Z" fill="white"/>
<path fill-rule="evenodd" clip-rule="evenodd" d="M55.4076 40.053L55.3772 40.1072C55.3521 40.1519 55.3328 40.1997 55.3193 40.2492C54.8628 41.9193 55.3952 41.8182 53.0749 41.8182C50.7611 41.8182 51.1856 41.93 50.7349 40.2591C50.6762 40.0414 50.511 39.8691 50.292 39.8092C49.2931 39.5356 47.7752 40.3023 46.9379 40.793C46.5762 41.005 46.2227 41.232 45.8765 41.4684C45.2414 41.9022 44.6227 42.3715 44.0344 42.8668C43.6311 43.2063 43.1803 43.5983 42.837 43.999C42.0768 44.8862 41.4592 45.8808 41.0396 46.9731C40.6546 47.9754 40.4501 49.0205 40.4282 50.0913L40.4286 50.2834C40.4286 50.3221 40.432 50.3608 40.4392 50.3988L41.5549 56.2826C41.6452 56.7583 41.7705 57.3138 42.1071 57.6815C42.4647 58.0723 42.9528 58.3041 43.4855 58.3041C44.018 58.3041 44.5061 58.0722 44.8638 57.6815C45.1973 57.3171 45.3879 56.8443 45.4097 56.353L45.4096 56.2581C45.4095 56.2194 45.4061 56.1807 45.3989 56.1427L44.2792 50.2381L44.2797 50.2063C44.2912 49.361 44.4938 48.5488 44.9479 47.8306C45.0784 47.6241 45.2269 47.4294 45.39 47.2476L45.9158 46.6619L45.9393 47.4486C45.9855 48.9995 46.2942 50.5356 46.5948 52.0533C47.1368 54.7894 47.5967 57.347 47.0495 60.1371C46.9828 60.4775 47.2061 60.8083 47.5464 60.8747C47.704 60.9012 47.9535 60.8972 48.1176 60.9015C48.5386 60.9129 48.9601 60.9182 49.3812 60.9227C50.5879 60.9357 51.7951 60.9381 53.0018 60.9374C54.215 60.9368 55.4284 60.9326 56.6415 60.9201C57.0628 60.9157 57.4843 60.9108 57.9055 60.9012C58.0752 60.8974 58.3072 60.9024 58.4731 60.8794C58.8163 60.8306 59.056 60.5127 59.0066 60.1692C58.5788 57.1888 59.0107 54.4113 59.5273 51.4843C59.7639 50.1438 60.0171 48.7709 60.0824 47.4099L60.1186 46.6549L60.6292 47.2121C60.805 47.404 60.9644 47.6105 61.1035 47.8306C61.5735 48.574 61.8477 49.3856 61.771 50.2743L61.2753 56.0119C61.2732 56.0364 61.271 56.0614 61.271 56.0859C61.271 56.6112 61.464 57.1219 61.8191 57.5099C62.1768 57.9006 62.6649 58.1325 63.1975 58.1325C63.7301 58.1325 64.2182 57.9006 64.5758 57.5099C64.9249 57.1285 65.0809 56.6084 65.1247 56.1025L65.6209 50.358C65.6231 50.3335 65.6252 50.3085 65.6252 50.2839C65.6252 49.1458 65.4199 48.0354 65.0118 46.9731C64.5923 45.8808 63.9746 44.8862 63.2145 43.999C63.0938 43.8581 62.9369 43.7199 62.7978 43.5975C62.5627 43.3907 62.319 43.1919 62.0735 42.9977C61.4347 42.492 60.7717 42.0087 60.0986 41.5499C59.5331 41.1645 58.9522 40.7903 58.356 40.454C57.9146 40.2051 57.4235 39.947 56.9426 39.7851C56.5041 39.6374 55.9517 39.544 55.5682 39.8724C55.5061 39.9256 55.4523 39.9856 55.4076 40.053L55.4076 40.053Z" fill="white"/>
<path d="M56.3711 40.7551C56.7197 41.1404 56.6899 41.7354 56.3047 42.084C56.0556 42.3093 55.7189 42.3765 55.4177 42.2918H50.6355C50.4688 42.3387 50.2913 42.339 50.1237 42.2918H50.1234V42.2917C49.9883 42.2535 49.8597 42.1846 49.7486 42.084C49.3633 41.7354 49.3335 41.1404 49.6821 40.7551C49.6837 40.7534 50.2551 40.139 50.4695 38.7231C50.547 38.2073 51.0279 37.852 51.5437 37.9294H54.5096C55.0253 37.852 55.5063 38.2073 55.5837 38.7231C55.7981 40.139 56.3695 40.7534 56.3711 40.7551H56.3711Z" fill="white"/>
<path fill-rule="evenodd" clip-rule="evenodd" d="M23.8643 40.7361L23.835 40.7886C23.8107 40.8318 23.7921 40.8781 23.779 40.9259C23.3374 42.5414 23.8524 44.8811 21.608 44.8811C19.3699 44.8811 19.7805 42.5518 19.3445 40.9355C19.2877 40.7249 19.128 40.5583 18.9161 40.5003C17.9499 40.2357 16.4816 40.9773 15.6717 41.4519C15.3218 41.657 14.9799 41.8766 14.6451 42.1053C14.0308 42.5248 13.4323 42.9788 12.8632 43.4579C12.4731 43.7863 12.037 44.1655 11.705 44.553C10.9696 45.4113 10.3722 46.3733 9.96636 47.4298C9.59391 48.3994 9.39615 49.4103 9.375 50.4461L9.3753 50.6319C9.37535 50.6693 9.37863 50.7068 9.3856 50.7435L10.4648 56.4349C10.5521 56.895 10.6734 57.4323 10.9989 57.788C11.3449 58.166 11.817 58.3903 12.3322 58.3903C12.8474 58.3903 13.3195 58.1659 13.6654 57.788C13.9881 57.4354 14.1724 56.9782 14.1935 56.5029L14.1934 56.4111C14.1933 56.3737 14.19 56.3363 14.1831 56.2996L13.1 50.5881L13.1004 50.5573C13.1116 49.7397 13.3076 48.9541 13.7468 48.2593C13.8731 48.0596 14.0166 47.8712 14.1745 47.6954L14.683 47.1288L14.7057 47.8898C14.7504 49.39 15.049 50.8759 15.3398 52.3439C15.8641 54.9905 16.309 57.4645 15.7796 60.1633C15.7151 60.4926 15.9311 60.8125 16.2603 60.8767C16.4127 60.9024 16.6541 60.8985 16.8128 60.9027C17.2201 60.9137 17.6278 60.9188 18.0351 60.9232C19.2023 60.9357 20.37 60.9381 21.5373 60.9374C22.7107 60.9368 23.8845 60.9328 25.0579 60.9207C25.4654 60.9164 25.8731 60.9116 26.2806 60.9024C26.4447 60.8987 26.6691 60.9035 26.8296 60.8813C27.1616 60.834 27.3934 60.5265 27.3457 60.1943C26.9319 57.3114 27.3496 54.6247 27.8493 51.7936C28.0782 50.4968 28.3231 49.1689 28.3862 47.8524L28.4212 47.122L28.9152 47.6611C29.0853 47.8467 29.2394 48.0464 29.3739 48.2593C29.8285 48.9784 30.0938 49.7634 30.0196 50.623L29.5401 56.173C29.538 56.1967 29.536 56.2208 29.536 56.2446C29.536 56.7526 29.7227 57.2467 30.0662 57.622C30.4121 57.9999 30.8843 58.2243 31.3994 58.2243C31.9146 58.2243 32.3867 57.9999 32.7327 57.622C33.0703 57.2531 33.2213 56.75 33.2635 56.2606L33.7436 50.7041C33.7457 50.6804 33.7477 50.6562 33.7477 50.6324C33.7477 49.5315 33.5492 48.4574 33.1544 47.4298C32.7486 46.3733 32.1511 45.4112 31.4158 44.553C31.2991 44.4168 31.1474 44.283 31.0128 44.1646C30.7854 43.9646 30.5496 43.7724 30.3122 43.5844C29.6943 43.0954 29.053 42.6278 28.4019 42.1841C27.8549 41.8113 27.293 41.4493 26.7163 41.124C26.2894 40.8833 25.8143 40.6336 25.3491 40.4769C24.925 40.3341 24.3907 40.2438 24.0197 40.5615C23.9597 40.6129 23.9076 40.6709 23.8643 40.7361L23.8643 40.7361Z" fill="white"/>
<path fill-rule="evenodd" clip-rule="evenodd" d="M28.3949 33.9421C28.3949 29.9671 26.6502 27.4054 24.4146 26.2631C23.5218 25.807 22.5527 25.5798 21.5836 25.5808C20.6093 25.5818 19.6394 25.8096 18.7504 26.2632C16.5026 27.4103 14.7442 29.9806 14.7442 33.9421C14.7442 35.1839 14.9667 36.0171 15.1666 36.7656C15.3826 37.5742 15.5654 38.2588 15.2425 39.3638C15.197 39.5194 14.9444 40.0517 14.6543 40.6433C14.787 40.5605 14.9208 40.4795 15.0558 40.4004C16.2179 39.7194 17.8771 38.9521 19.2382 39.3248C19.8668 39.4969 20.3519 39.9898 20.5214 40.6181C20.6423 41.0662 20.7048 41.5266 20.7644 41.9862C20.8095 42.3339 20.9075 43.2784 21.1431 43.5447C21.24 43.6542 21.4787 43.6623 21.6082 43.6623C21.7105 43.6623 21.958 43.6557 22.0363 43.5649C22.2515 43.3155 22.3318 42.3275 22.3678 42.0009C22.4198 41.5313 22.4787 41.0611 22.6036 40.6044C22.668 40.369 22.6488 40.4125 22.772 40.1926L22.8014 40.1402C22.912 39.9429 23.0562 39.7822 23.2273 39.6357C23.9504 39.0165 24.8811 39.0333 25.7383 39.3219C26.2876 39.5069 26.8112 39.7782 27.3152 40.0625C27.7137 40.2873 28.1036 40.5272 28.4873 40.7764L28.3769 40.5267C28.1508 40.0137 27.9649 39.5787 27.9259 39.4521C27.5647 38.2812 27.7511 37.586 27.9723 36.7607C28.1722 36.015 28.3949 35.1848 28.3949 33.9421L28.3949 33.9421ZM20.0077 30.3077C18.2052 27.9877 18.9536 28.5754 21.287 29.7104C21.315 29.7282 21.3419 29.7473 21.3674 29.7677C21.7241 30.0159 22.1335 30.2295 22.5647 30.413C23.4541 30.7918 24.4316 31.0378 25.2598 31.1996C25.5901 31.2463 25.8825 31.473 25.9968 31.8104C26.2502 32.5507 26.2594 33.3056 26.1365 34.0398C26.0233 34.7161 25.7985 35.3648 25.5577 35.9602C25.1959 36.8551 24.7302 37.718 24.133 38.3719C23.4494 39.1205 22.607 39.6038 21.5695 39.6038C21.5494 39.6038 21.4967 39.6016 21.4102 39.5973C20.1385 39.5345 18.9767 38.7404 18.1527 37.5066C17.39 36.3646 16.904 34.8282 16.904 33.1682C16.904 33.061 16.9083 32.92 16.917 32.7439C16.9351 32.3585 17.1901 32.0403 17.5346 31.9234C17.5961 31.8954 17.6617 31.8738 17.7307 31.8598C18.113 31.7813 18.6067 31.5375 19.0627 31.1785C19.2582 31.0246 19.8503 30.493 20.0077 30.3077H20.0077Z" fill="white"/>
</svg>
