<svg width="75" height="75" viewBox="0 0 75 75" fill="none" xmlns="http://www.w3.org/2000/svg">
<path d="M13.4814 47.4311C12.8369 47.4311 12.3145 46.9086 12.3145 46.2641C12.3145 45.6196 12.837 45.0971 13.4814 45.0971H19.6756C20.3201 45.0971 20.8426 45.6196 20.8426 46.2641C20.8426 46.9086 20.3201 47.4311 19.6756 47.4311H13.4814Z" fill="white"/>
<path d="M15.2318 10.553H11.731V25.0085H15.2318V10.553Z" fill="white"/>
<path d="M65.6248 10.553H62.124V52.5676H65.6248V10.553Z" fill="white"/>
<path d="M50.8358 10.553H47.335V30.4864H50.8358V10.553Z" fill="white"/>
<path fill-rule="evenodd" clip-rule="evenodd" d="M38.0229 26.9855H59.0518V30.4864H38.0229V26.9855Z" fill="white"/>
<path fill-rule="evenodd" clip-rule="evenodd" d="M50.7905 37.6116H65.625V41.1125H50.7905V37.6116Z" fill="white"/>
<path fill-rule="evenodd" clip-rule="evenodd" d="M11.731 44.5136H21.4261V48.0145H11.731V44.5136Z" fill="white"/>
<path fill-rule="evenodd" clip-rule="evenodd" d="M65.6249 14.0538H11.731V10.553H65.6249V14.0538Z" fill="white"/>
<path fill-rule="evenodd" clip-rule="evenodd" d="M65.6249 64.4471H11.731V60.9462H65.6249V64.4471Z" fill="white"/>
<path fill-rule="evenodd" clip-rule="evenodd" d="M41.524 21.5081V25.0089H25.9727V21.5081H41.524Z" fill="white"/>
<path fill-rule="evenodd" clip-rule="evenodd" d="M41.5237 34.8684H38.0229V21.5081H41.5237V34.8684Z" fill="white"/>
<path fill-rule="evenodd" clip-rule="evenodd" d="M29.4495 42.3316H25.9487V21.7462H29.4495V42.3316Z" fill="white"/>
<path d="M15.2318 29.1765H11.731V64.447H15.2318V29.1765Z" fill="white"/>
<path d="M36.0467 44.5137H32.5459V64.4471H36.0467V44.5137Z" fill="white"/>
<path d="M65.6248 56.7352H62.124V64.4469H65.6248V56.7352Z" fill="white"/>
<path fill-rule="evenodd" clip-rule="evenodd" d="M46.5083 57.4981L47.1642 53.6821L50.3242 56.8421L46.5083 57.4981Z" fill="white"/>
<path d="M59.586 47.5826L56.4238 44.4204L47.615 53.2293L50.7772 56.3914L59.586 47.5826Z" fill="white"/>
<path fill-rule="evenodd" clip-rule="evenodd" d="M59.5859 43.0652L60.9412 44.4204C61.4381 44.9174 61.4381 45.7305 60.9412 46.2274L60.0377 47.1309L56.8755 43.9687L57.779 43.0652C58.2759 42.5683 59.089 42.5683 59.5859 43.0652L59.5859 43.0652Z" fill="white"/>
<path d="M10.8926 25.0374C10.2783 24.8436 9.62319 25.1844 9.42937 25.7986C9.23555 26.4129 9.57638 27.068 10.1906 27.2618C15.4167 28.9207 18.5474 30.1093 20.2648 32.0853C21.9531 34.0278 22.4431 36.9623 22.4431 42.1681C22.4431 42.5071 22.4341 42.7509 22.4242 43.0175C22.3279 45.6146 22.1777 49.6687 25.9269 49.7817C30.449 49.918 31.6271 45.4065 32.6197 41.6046C32.9882 40.1936 33.3261 38.8995 33.7664 38.2129C33.9321 37.9546 34.179 37.8844 34.5984 38.1534C35.4458 38.6968 36.1717 39.7567 36.767 40.9784C37.6747 42.8415 38.2434 45.0167 38.5093 46.4673C38.5447 46.6601 38.614 47.1135 38.6953 47.645C39.2165 51.0538 40.227 57.6604 43.5969 57.9757C44.2363 58.0336 44.8017 57.5622 44.8596 56.9227C44.9175 56.2833 44.446 55.718 43.8066 55.66C42.2584 55.5152 41.4295 50.0951 41.0019 47.2985C40.9339 46.8542 40.876 46.4754 40.7976 46.048C40.5027 44.439 39.8715 42.0257 38.8639 39.9574C38.1021 38.394 37.1117 36.9982 35.8565 36.1934C33.9742 34.9863 32.7446 35.4917 31.8064 36.9548C31.171 37.9455 30.7868 39.4169 30.3679 41.0212C29.5898 44.0012 28.6663 47.5375 25.9907 47.4569C24.5891 47.4146 24.6866 44.7845 24.7491 43.0996C24.7637 42.7042 24.7771 42.3432 24.7771 42.1681C24.7771 36.3703 24.1578 33.0175 22.0244 30.5629C19.92 28.1416 16.5163 26.8225 10.8926 25.0375L10.8926 25.0374Z" fill="white"/>
</svg>
