<svg width="75" height="75" viewBox="0 0 75 75" fill="none" xmlns="http://www.w3.org/2000/svg">
<path fill-rule="evenodd" clip-rule="evenodd" d="M55.0588 31.0925C55.0588 30.1254 54.986 27.7483 54.8465 25.6849C54.7503 24.2616 54.6168 22.9718 54.4426 22.3449C53.3468 18.4009 50.8662 15.243 47.6011 13.0281C44.1865 10.7117 39.911 9.43337 35.4789 9.37892C32.9507 9.34786 30.5355 9.74718 28.3022 10.508C25.978 11.2998 23.8448 12.483 21.9801 13.98C20.6865 15.0185 19.464 16.4776 18.432 18.2039C17.4394 19.8642 16.6178 21.7759 16.0757 23.7991C15.0779 27.5229 14.7599 30.7627 15.2885 34.3914C15.8087 37.9627 17.1525 41.8747 19.4837 46.9843C20.2973 48.7677 21.058 50.9399 21.6203 53.7583C22.1863 56.595 22.5447 60.0744 22.5447 64.451C22.5447 65.0981 23.0695 65.6229 23.7166 65.6229H42.1657C42.8129 65.6229 43.3376 65.0981 43.3376 64.451C43.3376 62.9665 43.2182 61.6681 43.119 60.5893C43.0564 59.9083 43.0028 59.3257 43.0028 58.8C43.0028 57.9281 43.3881 57.5674 45.1836 57.5674C46.0369 57.5674 46.6893 57.5857 47.3337 57.6039C50.9102 57.7046 54.2883 57.7996 55.6513 55.4446L55.6533 55.4458C56.0326 54.789 56.105 53.0083 56.0165 50.9637C55.9315 48.9972 55.7205 46.7002 55.5098 45.0241C57.5318 45.0213 58.5256 45.0163 59.6799 43.6792C59.9109 43.4122 59.9995 43.0702 59.9524 42.7462C59.6298 40.1333 55.0588 32.5632 55.0588 31.0926L55.0588 31.0925ZM41.0158 31.8998V40.1029V41.2748H39.8439H30.4689H29.297V40.1029V31.8998H26.9532H24.376L26.0743 29.9588L34.2775 20.5838L35.1564 19.5794L36.0353 20.5838L44.2385 29.9588L45.9368 31.8998H43.3595H41.0158H41.0158Z" fill="white"/>
</svg>
